<?xml version="1.0" encoding="utf-8"?>
<!-- Generator: Adobe Illustrator 19.0.0, SVG Export Plug-In . SVG Version: 6.00 Build 0)  -->
<svg version="1.1" id="Layer_1" xmlns="http://www.w3.org/2000/svg" xmlns:xlink="http://www.w3.org/1999/xlink" x="0px" y="0px"
	 viewBox="43.6 68.5 888.7 751" style="enable-background:new 43.6 68.5 888.7 751;" xml:space="preserve">
<style type="text/css">
	.st0{display:none;}
	.st1{display:inline;stroke:#000000;stroke-miterlimit:10;}
	.st2{display:inline;}
	.st3{fill:#E3BD82;}
	.st4{font-family:'PlayfairDisplay-Regular';}
	.st5{font-size:118.6935px;}
	.st6{font-family:'Lato-Regular';}
	.st7{font-size:36.8378px;}
	.st8{fill:#E2BD84;}
	.st9{font-size:27.7692px;}
	.st10{letter-spacing:3;}
</style>
<g id="Circle_BG" class="st0">
	<circle id="XMLID_1_" class="st1" cx="488" cy="444" r="375"/>
</g>
<g id="Square_BG" class="st0">
	<rect id="XMLID_47_" x="113" y="69" class="st2" width="750" height="750"/>
</g>
<g id="OLD__x2A_retired_x2A_" class="st0">
	<g id="XMLID_6_" class="st2">
		<text id="XMLID_46_" transform="matrix(1 0 0 1 43.6465 668.626)" class="st3 st4 st5">D</text>
		<text id="XMLID_45_" transform="matrix(1 0 0 1 128.2671 668.626)" class="st3 st4 st5">I</text>
		<text id="XMLID_44_" transform="matrix(1 0 0 1 167.3179 668.626)" class="st3 st4 st5">A</text>
		<text id="XMLID_43_" transform="matrix(1 0 0 1 240.896 668.626)" class="st3 st4 st5">M</text>
		<text id="XMLID_42_" transform="matrix(1 0 0 1 343.0869 668.626)" class="st3 st4 st5">O</text>
		<text id="XMLID_41_" transform="matrix(1 0 0 1 429.8384 668.626)" class="st3 st4 st5">N</text>
		<text id="XMLID_40_" transform="matrix(1 0 0 1 512.4512 668.626)" class="st3 st4 st5">D</text>
		<text id="XMLID_39_" transform="matrix(1 0 0 1 597.0625 668.626)" class="st3 st4 st5">S</text>
		<text id="XMLID_38_" transform="matrix(1 0 0 1 688.333 668.626)" class="st3 st4 st5">B</text>
		<text id="XMLID_37_" transform="matrix(1 0 0 1 761.0859 668.626)" class="st3 st4 st5">Y</text>
		<text id="XMLID_36_" transform="matrix(1 0 0 1 858.4063 668.626)" class="st3 st4 st5">B</text>
	</g>
	<g id="XMLID_2_" class="st2">
		<text id="XMLID_35_" transform="matrix(1 0 0 1 183.0986 762.2773)" class="st3 st6 st7">C</text>
		<text id="XMLID_34_" transform="matrix(1 0 0 1 216.7739 762.2773)" class="st3 st6 st7">U</text>
		<text id="XMLID_33_" transform="matrix(1 0 0 1 252.1001 762.2773)" class="st3 st6 st7">S</text>
		<text id="XMLID_32_" transform="matrix(1 0 0 1 280.0684 762.2773)" class="st3 st6 st7">T</text>
		<text id="XMLID_31_" transform="matrix(1 0 0 1 310.2524 762.2773)" class="st3 st6 st7">O</text>
		<text id="XMLID_30_" transform="matrix(1 0 0 1 348.0781 762.2773)" class="st3 st6 st7">M</text>
		<text id="XMLID_29_" transform="matrix(1 0 0 1 405.9717 762.2773)" class="st3 st6 st7">F</text>
		<text id="XMLID_28_" transform="matrix(1 0 0 1 435.2627 762.2773)" class="st3 st6 st7">I</text>
		<text id="XMLID_27_" transform="matrix(1 0 0 1 455.0474 762.2773)" class="st3 st6 st7">N</text>
		<text id="XMLID_26_" transform="matrix(1 0 0 1 491.332 762.2773)" class="st3 st6 st7">E</text>
		<text id="XMLID_25_" transform="matrix(1 0 0 1 536.751 762.2773)" class="st3 st6 st7">J</text>
		<text id="XMLID_24_" transform="matrix(1 0 0 1 561.5615 762.2773)" class="st3 st6 st7">E</text>
		<text id="XMLID_23_" transform="matrix(1 0 0 1 591.4072 762.2773)" class="st3 st6 st7">W</text>
		<text id="XMLID_22_" transform="matrix(1 0 0 1 637.3721 762.2773)" class="st3 st6 st7">L</text>
		<text id="XMLID_21_" transform="matrix(1 0 0 1 664.7549 762.2773)" class="st3 st6 st7">L</text>
		<text id="XMLID_20_" transform="matrix(1 0 0 1 692.1328 762.2773)" class="st3 st6 st7">E</text>
		<text id="XMLID_19_" transform="matrix(1 0 0 1 721.9824 762.2773)" class="st3 st6 st7">R</text>
		<text id="XMLID_18_" transform="matrix(1 0 0 1 754.1484 762.2773)" class="st3 st6 st7">Y</text>
	</g>
	<g id="XMLID_3_" class="st2">
		<g id="XMLID_4_">
			<g id="XMLID_5_">
				<g id="XMLID_53_">
					<path id="XMLID_54_" class="st8" d="M617.8,119c12,10,24,20.1,35.9,30.2c25.7,21.8,51.5,43.5,77.1,65.4
						c10.9,9.3,21.7,18.7,32.5,28.2c4,3.5,4,5.8,0.2,9.5c-8.3,7.9-16.7,15.7-25,23.7c-11.4,11-22.7,22.2-34.2,33.1
						c-11.3,10.8-22.8,21.4-34.1,32.3c-19.4,18.6-38.8,37.2-58.2,55.9c-16.8,16.1-33.6,32.3-50.4,48.4c-9.8,9.4-19.8,18.5-29.6,27.9
						c-11.7,11.2-23.3,22.6-34.9,33.9c-1.6,1.5-3.3,3-4.9,4.5c-3.2,2.9-5.3,3-8.4,0.1c-9.2-8.7-18.4-17.3-27.5-26.1
						c-18.2-17.5-36.4-35-54.7-52.5c-6.8-6.5-13.7-12.8-20.5-19.3c-19.2-18.4-38.4-36.9-57.7-55.4c-17-16.4-34-32.8-51.1-49.1
						c-9.3-8.9-18.8-17.6-28.1-26.5c-11.6-11.2-23.1-22.4-34.6-33.7c0-1.4,0-2.8,0-4.2c12.3-10.5,24.5-21.1,36.9-31.6
						c5.6-4.8,11.4-9.5,17-14.3c19.4-16.5,38.7-33.1,58.1-49.6c12.1-10.4,24.2-20.6,36.4-30.8C444.6,119,531.2,119,617.8,119z
						 M467.3,482.5c0,0.1,0.1,0.2,0.1,0.3c0,0,0.1,0,0.2,0C467.6,482.8,467.4,482.7,467.3,482.5c-0.2-0.5-0.4-1-0.5-1.5
						c-1-2.2-1.9-4.5-3-6.6c-11.9-22-23.8-44-35.7-66c-11.8-21.8-23.6-43.6-35.4-65.4c-15.9-29.2-31.8-58.4-47.6-87.7
						c-1.1-2-2.3-2.8-4.6-2.8c-36.6,0.1-73.1,0-109.7,0.1c-0.9,0-1.7,0.3-2.6,0.4c0.5,0.7,0.9,1.5,1.6,2.1
						c10.4,10.1,20.7,20.3,31.1,30.3c12.1,11.6,24.5,23,36.6,34.7c10.3,9.8,20.4,19.9,30.7,29.8c10.9,10.4,22,20.6,32.9,31
						c11,10.5,21.8,21.1,32.8,31.6c18.5,17.6,37,35.1,55.6,52.7c5.7,5.4,11.3,10.9,17,16.3C466.7,481.8,467,482.2,467.3,482.5z
						 M509.2,482c3.2-3.1,6.4-6.3,9.6-9.4c13.5-12.8,27-25.5,40.4-38.3c10.1-9.7,20-19.6,30.1-29.3c11.7-11.2,23.6-22.3,35.4-33.5
						c9.8-9.4,19.3-19,29.2-28.3c20.6-19.6,41.3-39,61.9-58.6c10-9.5,19.8-19.2,29.7-28.8c0.8-0.8,1.5-1.9,2.2-2.8
						c-1.1-0.2-2.2-0.5-3.3-0.5c-36.2,0-72.4,0-108.6-0.1c-2.4,0-3.7,0.7-4.9,2.9c-5.3,10.2-10.7,20.3-16.2,30.4
						c-11.2,20.8-22.6,41.5-33.8,62.3c-11.7,21.6-23.3,43.2-35,64.8c-8.2,15.1-16.6,30-24.8,45.1c-4.2,7.8-8.1,15.8-12.2,23.7
						c0,0.2-0.1,0.4-0.1,0.7C508.9,482.2,509.1,482.1,509.2,482z M493,370.8c0,38,0,75.9,0,113.9c0,1.2,0.3,2.4,0.4,3.6
						c0.7-0.9,1.4-1.8,1.9-2.7c2.5-4.8,4.9-9.7,7.5-14.5c11.7-21.6,23.4-43.2,35.1-64.8c17.9-33,36-65.9,53.9-98.9
						c9.3-17.1,18.4-34.3,27.7-51.4c2-3.7,2.1-3.7-2.2-3.7c-28.4,0.1-56.8,0.3-85.2,0.4c-11.6,0-23.2,0.2-34.8-0.1
						c-3.6-0.1-4.4,1.1-4.4,4.5C493,294.9,493,332.8,493,370.8z M482.9,370.8c0-38.1,0-76.1,0.1-114.2c0-3.2-0.9-4.1-4.1-4.1
						c-19.5,0-39-0.2-58.5-0.3c-21-0.1-42,0-63,0c-2,0-3.1-0.1-1.7,2.5c5.9,10.8,11.6,21.7,17.4,32.5c11,20.4,22.2,40.7,33.2,61.1
						c11.6,21.4,23.1,42.8,34.7,64.3c13.2,24.5,26.5,48.9,39.8,73.3c0.4,0.7,1.1,1.2,1.7,1.9c0.1-0.8,0.3-1.5,0.3-2.3
						c0.1-0.7,0-1.4,0-2.1C482.9,445.8,482.9,408.3,482.9,370.8z M346.4,240.5c0.8-0.6,1.6-1.1,2.3-1.7c8.9-7.9,17.8-15.9,26.8-23.7
						c11.9-10.3,23.8-20.6,35.8-30.8c1.8-1.5,1.9-2.4,0.1-4c-5-4.5-9.8-9.2-14.6-13.9c-11.5-11.2-23.1-22.5-34.5-33.8
						c-1.9-1.9-3.1-1.9-5.1-0.1c-7.9,7.1-16,14-24.1,20.9c-13.2,11.2-26.4,22.3-39.7,33.3c-2.1,1.8-2.2,2.8-0.1,4.7
						c8.6,7.8,17.1,15.6,25.6,23.5c8.5,8,17,16,25.5,24.1C345,239.5,345.7,239.9,346.4,240.5z M684.7,188.9c-1.1-1-1.9-1.9-2.9-2.7
						c-5.8-4.9-11.7-9.8-17.5-14.8c-14.8-12.6-29.6-25.2-44.3-38c-3-2.6-4.8-2.6-7.6,0.3c-6.9,7.2-14,14.2-21.1,21.1
						c-8.6,8.4-17.4,16.7-26.2,24.9c-2,1.8-2.5,2.8-0.1,4.9c12.9,11.1,25.5,22.5,38.3,33.7c7.9,6.9,16,13.7,23.9,20.7
						c1.7,1.5,2.8,1.7,4.6-0.1c8.3-8,16.8-15.9,25.2-23.8c8.5-7.9,17-15.8,25.4-23.7C683.2,190.6,683.9,189.8,684.7,188.9z
						 M558.2,242.4c18.1,0,36.2,0,54.3,0c0.9,0,1.8-0.2,2.7-0.3c-0.6-0.8-1-1.7-1.8-2.3c-9.1-8.1-18.3-16.3-27.5-24.3
						c-7.8-6.9-15.7-13.7-23.6-20.5c-6.9-6-7-5.9-13.6,0.5c-8.6,8.4-17,17-25.7,25.4c-6.4,6.2-13,12.2-19.4,18.4
						c-0.9,0.8-1.5,1.9-2.3,2.9c1.2,0.1,2.4,0.3,3.7,0.3C522.8,242.4,540.5,242.4,558.2,242.4z M417.5,242.4c18,0,35.9,0,53.9,0
						c1,0,2-0.2,3-0.3c-0.6-0.9-1.2-1.9-2-2.6c-3.1-3-6.3-5.8-9.4-8.8c-13.4-13.1-26.9-26.2-40.2-39.4c-1.9-1.8-2.9-1.8-4.8-0.1
						c-9.9,9-19.9,17.9-30,26.8c-8.6,7.6-17.4,15-26.1,22.5c-0.6,0.5-1,1.1-1.5,1.7c0.8,0.1,1.5,0.3,2.3,0.3
						C381.1,242.4,399.3,242.4,417.5,242.4z M483.2,137.6c0-0.7-0.3-1.5-0.5-2.2c-0.7,0.4-1.4,0.7-2,1.2
						c-6.3,5.6-12.5,11.3-18.9,16.9c-10.4,9.1-20.8,18.1-31.3,27c-2.2,1.8-2,2.9,0,4.7c5.6,5.2,11.1,10.5,16.6,15.8
						c11,10.7,22,21.5,33.1,32.3c0.7,0.7,1.6,1.2,2.4,1.9c0.2-1.1,0.6-2.2,0.6-3.2 M493,185.2c0,15.5,0,31.1,0,46.6c0,1,0.2,2,0.3,3
						c0.8-0.5,1.7-1,2.4-1.6c6.7-6.5,13.4-13.1,20.1-19.6c9.8-9.4,19.5-18.8,29.5-28c2.3-2.1,2.3-3.2-0.2-5.2
						c-7.5-6.2-14.8-12.6-22.1-19.1c-9-7.9-18-16-27-23.9c-0.8-0.7-1.9-1.1-2.8-1.7c-0.1,1-0.3,2-0.3,3
						C493,154.1,493,169.7,493,185.2z M281.1,242.4c16.2,0,32.5,0,48.7,0c0.9,0,1.7-0.3,2.6-0.4c-0.5-0.7-0.9-1.5-1.6-2.1
						c-10-9.6-20.1-19.2-30.2-28.7c-4.9-4.6-10-9-14.8-13.7c-2-2-3.3-1.8-5.1-0.1c-7.9,7-15.8,13.9-23.7,20.7
						c-8.4,7.2-17,14.3-25.5,21.5c-0.8,0.6-1.3,1.5-2,2.2c1,0.2,1.9,0.5,2.9,0.5C248.6,242.4,264.9,242.4,281.1,242.4z M695.4,242.4
						c16.4,0,32.7,0,49.1,0c0.7,0,1.5-0.3,2.2-0.4c-0.4-0.5-0.8-1-1.3-1.5c-9.9-8.7-19.8-17.4-29.8-26c-6.8-5.9-13.9-11.6-20.7-17.5
						c-1.5-1.3-2.6-1.6-4.1-0.2c-6.6,6.2-13.3,12.3-19.9,18.5c-8.4,7.9-16.7,16-25.1,24c-0.8,0.7-1.4,1.7-2,2.6
						c1.1,0.2,2.2,0.5,3.3,0.5C663.2,242.4,679.3,242.4,695.4,242.4z M552.5,128.7c-16.1,0-32.3,0-48.4,0c-0.7,0-1.3,0.1-2,0.2
						c0.4,0.5,0.7,1.1,1.1,1.5c16.4,14.5,32.9,28.9,49.3,43.4c1.8,1.6,3,1.8,4.9-0.1c9.5-9.5,19.1-18.8,28.8-28.2
						c5-4.9,10.1-9.6,15.1-14.4c0.6-0.5,1-1.2,1.5-1.8c-0.8-0.2-1.7-0.5-2.5-0.5C584.3,128.7,568.4,128.7,552.5,128.7z M423.4,128.7
						c-15.8,0-31.5,0-47.3,0c-1,0-1.9,0.3-2.9,0.4c0.6,0.8,1.2,1.6,1.9,2.3c7.9,7.8,15.8,15.6,23.8,23.3
						c6.5,6.3,13.1,12.4,19.5,18.8c2.1,2.1,3.3,1.8,5.3,0c8.8-8,17.7-15.9,26.6-23.8c7.2-6.3,14.6-12.5,21.9-18.8
						c0.6-0.5,1.1-1.2,1.6-1.8c-0.8-0.2-1.7-0.5-2.5-0.5C455.3,128.7,439.3,128.7,423.4,128.7z"/>
				</g>
			</g>
		</g>
	</g>
</g>
<g id="Vector_Logo" class="st0">
	<g id="XMLID_112_" class="st2">
		<text id="XMLID_57_" transform="matrix(1 0 0 1 258.1279 688.9326)" class="st3 st6 st9 st10">CUSTOM FINE JEWELLERY</text>
		<path id="XMLID_58_" class="st8" d="M585.8,194c9,7.6,18.1,15.1,27.1,22.7c19.4,16.4,38.8,32.8,58.1,49.3
			c8.2,7,16.4,14.1,24.5,21.2c3,2.6,3,4.4,0.1,7.2c-6.3,6-12.6,11.9-18.8,17.9c-8.6,8.3-17.1,16.7-25.8,25
			c-8.5,8.2-17.2,16.2-25.7,24.3c-14.6,14-29.2,28.1-43.8,42.1c-12.7,12.2-25.3,24.3-38,36.5c-7.4,7.1-15,13.9-22.3,21
			c-8.8,8.5-17.5,17-26.3,25.5c-1.2,1.2-2.5,2.2-3.7,3.4c-2.4,2.2-4,2.2-6.3,0c-6.9-6.5-13.9-13.1-20.8-19.7
			c-13.8-13.2-27.5-26.4-41.2-39.6c-5.1-4.9-10.4-9.7-15.5-14.6c-14.5-13.9-29-27.8-43.5-41.8c-12.8-12.3-25.7-24.7-38.5-37
			c-7-6.7-14.2-13.3-21.2-20c-8.7-8.4-17.4-16.9-26.1-25.4c0-1.1,0-2.1,0-3.2c9.3-7.9,18.5-15.9,27.8-23.8
			c4.2-3.6,8.6-7.2,12.8-10.8c14.6-12.5,29.2-25,43.8-37.4c9.1-7.7,18.3-15.4,27.4-23.1C455.3,194,520.5,194,585.8,194z
			 M472.4,468.1c0,0.1,0,0.2,0.1,0.2c0,0,0.1,0,0.2,0C472.6,468.2,472.5,468.1,472.4,468.1c-0.2-0.4-0.3-0.8-0.4-1.1
			c-0.8-1.7-1.4-3.4-2.3-5c-8.9-16.6-17.9-33.2-26.9-49.8c-8.9-16.4-17.8-32.9-26.7-49.3c-12-22-24-44-35.9-66.1
			c-0.8-1.5-1.8-2.1-3.5-2.1c-27.6,0-55.1,0-82.7,0c-0.6,0-1.3,0.2-1.9,0.3c0.4,0.5,0.7,1.1,1.2,1.6c7.8,7.6,15.6,15.3,23.5,22.8
			c9.2,8.8,18.4,17.4,27.6,26.1c7.8,7.4,15.4,15,23.1,22.4c8.2,7.9,16.6,15.6,24.8,23.4c8.3,7.9,16.4,15.9,24.7,23.8
			c13.9,13.3,27.9,26.5,41.9,39.7c4.3,4.1,8.5,8.2,12.8,12.3C471.9,467.5,472.2,467.8,472.4,468.1z M504,467.6
			c2.4-2.4,4.8-4.8,7.3-7.1c10.1-9.6,20.3-19.2,30.4-28.9c7.6-7.3,15.1-14.8,22.7-22.1c8.8-8.5,17.8-16.8,26.7-25.2
			c7.4-7.1,14.6-14.3,22-21.3c15.5-14.8,31.1-29.4,46.7-44.2c7.5-7.2,14.9-14.5,22.4-21.7c0.6-0.6,1.1-1.4,1.7-2.1
			c-0.8-0.1-1.7-0.4-2.5-0.4c-27.3,0-54.6,0-81.9-0.1c-1.8,0-2.8,0.5-3.7,2.2c-4,7.7-8.1,15.3-12.2,22.9c-8.5,15.7-17,31.3-25.5,47
			c-8.8,16.3-17.6,32.6-26.4,48.9c-6.2,11.4-12.5,22.6-18.7,34c-3.2,5.9-6.1,11.9-9.2,17.9c0,0.2-0.1,0.3-0.1,0.5
			C503.8,467.8,503.9,467.7,504,467.6z M491.8,383.8c0,28.6,0,57.2,0,85.8c0,0.9,0.2,1.8,0.3,2.7c0.5-0.7,1.1-1.3,1.5-2.1
			c1.9-3.6,3.7-7.3,5.7-10.9c8.8-16.3,17.6-32.6,26.5-48.9c13.5-24.9,27.1-49.7,40.6-74.6c7-12.9,13.9-25.9,20.9-38.8
			c1.5-2.8,1.6-2.8-1.7-2.8c-21.4,0.1-42.8,0.2-64.3,0.3c-8.7,0-17.5,0.1-26.2-0.1c-2.7-0.1-3.3,0.8-3.3,3.4
			C491.8,326.6,491.8,355.2,491.8,383.8z M484.1,383.8c0-28.7,0-57.4,0.1-86.1c0-2.4-0.7-3.1-3.1-3.1c-14.7,0-29.4-0.2-44.1-0.2
			c-15.8-0.1-31.7,0-47.5,0c-1.5,0-2.3,0-1.3,1.9c4.5,8.1,8.7,16.3,13.1,24.5c8.3,15.4,16.7,30.7,25,46.1
			c8.7,16.1,17.4,32.3,26.1,48.4c10,18.4,20,36.9,30,55.3c0.3,0.5,0.9,0.9,1.3,1.4c0.1-0.6,0.2-1.2,0.3-1.7c0-0.5,0-1,0-1.6
			C484.1,440.3,484.1,412.1,484.1,383.8z M381.3,285.6c0.6-0.5,1.2-0.8,1.7-1.3c6.7-5.9,13.4-12,20.2-17.9c9-7.8,18-15.5,27-23.2
			c1.3-1.1,1.4-1.8,0.1-3c-3.7-3.4-7.4-6.9-11-10.5c-8.7-8.5-17.4-16.9-26-25.5c-1.5-1.4-2.3-1.4-3.8-0.1c-6,5.3-12,10.6-18.2,15.8
			c-9.9,8.4-19.9,16.8-29.9,25.1c-1.6,1.3-1.6,2.1-0.1,3.5c6.5,5.8,12.9,11.8,19.3,17.7c6.4,6,12.8,12.1,19.2,18.1
			C380.2,284.8,380.7,285.2,381.3,285.6z M636.3,246.7c-0.8-0.8-1.5-1.5-2.2-2.1c-4.4-3.7-8.8-7.4-13.2-11.1
			c-11.1-9.5-22.3-19-33.4-28.6c-2.2-1.9-3.6-2-5.7,0.2c-5.2,5.4-10.5,10.7-15.9,15.9c-6.5,6.3-13.1,12.6-19.7,18.8
			c-1.5,1.4-1.9,2.1-0.1,3.7c9.7,8.4,19.2,16.9,28.9,25.4c6,5.2,12.1,10.4,18,15.6c1.3,1.1,2.1,1.3,3.5-0.1c6.3-6.1,12.7-12,19-18
			c6.4-6,12.8-11.9,19.2-17.9C635.2,248,635.7,247.4,636.3,246.7z M540.9,287c13.6,0,27.3,0,40.9,0c0.7,0,1.3-0.1,2-0.2
			c-0.4-0.6-0.8-1.3-1.3-1.8c-6.9-6.1-13.8-12.3-20.7-18.4c-5.9-5.2-11.8-10.3-17.8-15.4c-5.2-4.5-5.3-4.5-10.2,0.4
			c-6.5,6.4-12.8,12.8-19.3,19.1c-4.8,4.7-9.8,9.2-14.6,13.9c-0.7,0.6-1.2,1.4-1.7,2.2c0.9,0.1,1.8,0.3,2.8,0.3
			C514.2,287,527.6,287,540.9,287z M434.9,287c13.5,0,27.1,0,40.6,0c0.8,0,1.5-0.2,2.3-0.2c-0.5-0.7-0.9-1.4-1.5-2
			c-2.3-2.2-4.7-4.4-7.1-6.7c-10.1-9.9-20.3-19.8-30.3-29.7c-1.4-1.4-2.2-1.3-3.6-0.1c-7.5,6.8-15,13.5-22.6,20.2
			c-6.5,5.7-13.1,11.3-19.6,16.9c-0.4,0.4-0.7,0.9-1.1,1.3c0.6,0.1,1.1,0.3,1.7,0.3C407.4,287,421.2,287,434.9,287z M484.4,208
			c0-0.6-0.2-1.1-0.4-1.7c-0.5,0.3-1.1,0.5-1.5,0.9c-4.8,4.2-9.5,8.5-14.2,12.7c-7.8,6.8-15.7,13.6-23.6,20.4
			c-1.6,1.4-1.5,2.2,0,3.6c4.3,3.9,8.4,7.9,12.5,11.9c8.3,8.1,16.6,16.2,24.9,24.3c0.5,0.5,1.2,0.9,1.8,1.4c0.2-0.8,0.5-1.6,0.4-2.4
			 M491.8,243.9c0,11.7,0,23.4,0,35.1c0,0.8,0.2,1.5,0.2,2.3c0.6-0.4,1.3-0.7,1.8-1.2c5.1-4.9,10.1-9.9,15.2-14.8
			c7.4-7.1,14.7-14.2,22.2-21.1c1.7-1.6,1.7-2.4-0.1-4c-5.6-4.7-11.1-9.5-16.6-14.4c-6.8-6-13.5-12-20.3-18
			c-0.6-0.5-1.4-0.9-2.1-1.3c-0.1,0.8-0.2,1.5-0.2,2.3C491.8,220.5,491.8,232.2,491.8,243.9z M332,287c12.2,0,24.5,0,36.7,0
			c0.7,0,1.3-0.2,2-0.3c-0.4-0.5-0.7-1.1-1.2-1.6c-7.6-7.2-15.1-14.4-22.8-21.6c-3.7-3.5-7.6-6.8-11.1-10.3
			c-1.5-1.5-2.5-1.3-3.9-0.1c-5.9,5.2-11.9,10.5-17.9,15.6c-6.4,5.5-12.8,10.8-19.2,16.2c-0.6,0.5-1,1.1-1.5,1.7
			c0.7,0.1,1.5,0.4,2.2,0.4C307.6,287,319.8,287,332,287z M644.4,287c12.3,0,24.7,0,37,0c0.6,0,1.1-0.2,1.7-0.3
			c-0.3-0.4-0.6-0.8-1-1.1c-7.5-6.5-15-13.1-22.5-19.6c-5.2-4.4-10.4-8.7-15.6-13.2c-1.1-1-1.9-1.2-3.1-0.1c-5,4.7-10,9.2-15,13.9
			c-6.3,6-12.6,12-18.9,18.1c-0.6,0.6-1,1.3-1.5,1.9c0.8,0.1,1.6,0.4,2.5,0.4C620.1,287,632.2,287,644.4,287z M536.6,201.3
			c-12.2,0-24.3,0-36.5,0c-0.5,0-1,0.1-1.5,0.2c0.3,0.4,0.5,0.8,0.8,1.1c12.4,10.9,24.8,21.8,37.1,32.7c1.4,1.2,2.3,1.3,3.7-0.1
			c7.2-7.2,14.4-14.2,21.7-21.3c3.8-3.7,7.6-7.2,11.4-10.9c0.4-0.4,0.8-0.9,1.1-1.4c-0.6-0.1-1.3-0.4-1.9-0.4
			C560.6,201.3,548.6,201.3,536.6,201.3z M439.3,201.3c-11.9,0-23.8,0-35.6,0c-0.7,0-1.5,0.2-2.2,0.3c0.5,0.6,0.9,1.2,1.4,1.8
			c6,5.9,11.9,11.7,17.9,17.6c4.9,4.7,9.9,9.4,14.7,14.2c1.6,1.6,2.5,1.4,4,0c6.6-6,13.3-12,20.1-17.9c5.4-4.8,11-9.4,16.5-14.1
			c0.5-0.4,0.8-0.9,1.2-1.3c-0.6-0.1-1.2-0.4-1.9-0.4C463.4,201.3,451.3,201.3,439.3,201.3z"/>
	</g>
</g>
<g id="XMLID_158_">
	<path id="XMLID_184_" class="st3" d="M274.6,687.3c0.1,0,0.3,0.1,0.4,0.2l1.1,1.2c-0.8,0.9-1.8,1.7-3,2.2s-2.6,0.8-4.2,0.8
		c-1.4,0-2.7-0.2-3.9-0.7c-1.2-0.5-2.2-1.2-3-2.1c-0.8-0.9-1.5-2-1.9-3.2c-0.5-1.3-0.7-2.6-0.7-4.1s0.2-2.9,0.7-4.1
		c0.5-1.2,1.2-2.3,2-3.2c0.8-0.9,1.9-1.6,3.2-2.1s2.6-0.7,4.1-0.7s2.7,0.2,3.8,0.7c1.1,0.5,2,1.1,2.8,1.8l-0.9,1.2
		c-0.1,0.1-0.1,0.2-0.2,0.2c-0.1,0.1-0.2,0.1-0.4,0.1c-0.1,0-0.2,0-0.4-0.1c-0.1-0.1-0.3-0.2-0.5-0.3c-0.2-0.1-0.4-0.3-0.7-0.4
		c-0.3-0.1-0.5-0.3-0.9-0.4c-0.3-0.1-0.7-0.2-1.2-0.3s-1-0.1-1.6-0.1c-1.1,0-2,0.2-2.9,0.5c-0.9,0.4-1.6,0.9-2.3,1.6
		s-1.1,1.5-1.5,2.5s-0.5,2.1-0.5,3.3s0.2,2.3,0.5,3.3s0.8,1.8,1.5,2.5c0.6,0.7,1.3,1.2,2.2,1.5c0.8,0.4,1.7,0.5,2.7,0.5
		c0.6,0,1.1,0,1.6-0.1s0.9-0.2,1.3-0.3c0.4-0.1,0.8-0.3,1.1-0.6c0.3-0.2,0.7-0.5,1-0.8C274.3,687.4,274.4,687.3,274.6,687.3z"/>
	<path id="XMLID_186_" class="st3" d="M292.9,689.3c0.8,0,1.6-0.1,2.2-0.4c0.6-0.3,1.2-0.7,1.6-1.2c0.4-0.5,0.8-1.1,1-1.8
		c0.2-0.7,0.4-1.5,0.4-2.3v-12.1h2.7v12.1c0,1.1-0.2,2.2-0.5,3.2c-0.4,1-0.9,1.8-1.6,2.5c-0.7,0.7-1.5,1.3-2.5,1.7s-2.1,0.6-3.3,0.6
		c-1.2,0-2.3-0.2-3.3-0.6c-1-0.4-1.8-1-2.5-1.7s-1.2-1.6-1.6-2.5c-0.4-1-0.5-2-0.5-3.2v-12.1h2.7v12.1c0,0.8,0.1,1.6,0.4,2.3
		c0.2,0.7,0.6,1.3,1,1.8c0.4,0.5,1,0.9,1.7,1.2S292,689.3,292.9,689.3z"/>
	<path id="XMLID_188_" class="st3" d="M321.1,674.6c-0.1,0.1-0.2,0.2-0.3,0.3c-0.1,0.1-0.2,0.1-0.4,0.1c-0.2,0-0.3-0.1-0.5-0.2
		c-0.2-0.2-0.5-0.3-0.8-0.5s-0.7-0.4-1.2-0.5c-0.4-0.2-1-0.2-1.6-0.2s-1.1,0.1-1.6,0.2c-0.5,0.2-0.8,0.4-1.2,0.7
		c-0.3,0.3-0.5,0.6-0.7,1s-0.2,0.8-0.2,1.2c0,0.6,0.1,1,0.4,1.4s0.6,0.7,1.1,0.9c0.4,0.3,1,0.5,1.5,0.7c0.6,0.2,1.2,0.4,1.7,0.6
		c0.6,0.2,1.2,0.4,1.7,0.7s1.1,0.6,1.5,1s0.8,0.9,1.1,1.4s0.4,1.3,0.4,2.1c0,0.9-0.1,1.7-0.4,2.5s-0.7,1.4-1.3,2
		c-0.6,0.6-1.3,1-2.1,1.3c-0.8,0.3-1.8,0.5-2.8,0.5c-1.3,0-2.5-0.2-3.5-0.7c-1.1-0.5-2-1.1-2.7-1.9l0.8-1.3c0.1-0.1,0.2-0.2,0.3-0.3
		c0.1-0.1,0.2-0.1,0.4-0.1c0.2,0,0.4,0.1,0.7,0.3s0.6,0.4,0.9,0.7c0.4,0.3,0.8,0.5,1.4,0.7c0.5,0.2,1.2,0.3,2,0.3
		c0.6,0,1.2-0.1,1.7-0.3s0.9-0.4,1.3-0.7s0.6-0.7,0.8-1.1c0.2-0.4,0.3-0.9,0.3-1.5s-0.1-1.1-0.4-1.5s-0.6-0.7-1.1-1s-1-0.5-1.5-0.7
		c-0.6-0.2-1.2-0.4-1.7-0.6c-0.6-0.2-1.2-0.4-1.7-0.7c-0.6-0.3-1.1-0.6-1.5-1s-0.8-0.9-1.1-1.5s-0.4-1.3-0.4-2.2
		c0-0.7,0.1-1.4,0.4-2s0.7-1.2,1.2-1.7s1.2-0.9,1.9-1.2c0.8-0.3,1.6-0.5,2.6-0.5c1.1,0,2.1,0.2,3,0.5c0.9,0.4,1.7,0.9,2.4,1.5
		L321.1,674.6z"/>
	<path id="XMLID_190_" class="st3" d="M344.8,671.5v2.3h-6.4v17.6h-2.7v-17.6h-6.5v-2.3H344.8z"/>
	<path id="XMLID_192_" class="st3" d="M371.6,681.5c0,1.5-0.2,2.9-0.7,4.1c-0.5,1.2-1.1,2.3-2,3.2s-1.9,1.6-3.1,2.1s-2.5,0.7-4,0.7
		s-2.8-0.2-4-0.7s-2.2-1.2-3.1-2.1s-1.5-2-2-3.2s-0.7-2.6-0.7-4.1s0.2-2.9,0.7-4.1s1.1-2.3,2-3.2s1.9-1.6,3.1-2.1s2.5-0.8,4-0.8
		s2.8,0.3,4,0.8s2.2,1.2,3.1,2.1s1.5,2,2,3.2C371.4,678.6,371.6,680,371.6,681.5z M368.9,681.5c0-1.2-0.2-2.3-0.5-3.3
		s-0.8-1.8-1.4-2.5s-1.4-1.2-2.2-1.5c-0.9-0.4-1.8-0.5-2.9-0.5s-2,0.2-2.9,0.5c-0.9,0.4-1.6,0.9-2.2,1.5c-0.6,0.7-1.1,1.5-1.4,2.5
		s-0.5,2.1-0.5,3.3s0.2,2.3,0.5,3.3s0.8,1.8,1.4,2.5s1.4,1.2,2.2,1.5c0.9,0.4,1.8,0.5,2.9,0.5s2-0.2,2.9-0.5
		c0.9-0.4,1.6-0.9,2.2-1.5s1.1-1.5,1.4-2.5C368.7,683.8,368.9,682.7,368.9,681.5z"/>
	<path id="XMLID_195_" class="st3" d="M391,684.9c0.1,0.2,0.2,0.5,0.3,0.7c0.1-0.3,0.2-0.5,0.3-0.7c0.1-0.2,0.2-0.5,0.3-0.7
		l6.7-12.2c0.1-0.2,0.2-0.3,0.4-0.4c0.1,0,0.3-0.1,0.6-0.1h2v19.9h-2.4v-14.6c0-0.2,0-0.4,0-0.6c0-0.2,0-0.4,0-0.7l-6.8,12.4
		c-0.2,0.4-0.6,0.6-1,0.6H391c-0.4,0-0.7-0.2-1-0.6l-7-12.5c0,0.2,0,0.5,0.1,0.7c0,0.2,0,0.4,0,0.6v14.6h-2.4v-19.8h2
		c0.2,0,0.4,0,0.6,0.1c0.1,0,0.3,0.2,0.4,0.4l6.9,12.2C390.8,684.5,390.9,684.7,391,684.9z"/>
	<path id="XMLID_197_" class="st3" d="M435.1,671.5v2.2h-9.6v7h8.2v2.2h-8.2v8.6h-2.7v-20H435.1z"/>
	<path id="XMLID_199_" class="st3" d="M447.3,691.4h-2.7v-19.9h2.7V691.4z"/>
	<path id="XMLID_201_" class="st3" d="M460.2,671.6c0.1,0.1,0.2,0.2,0.4,0.4l11.5,15c0-0.2,0-0.5-0.1-0.7c0-0.2,0-0.4,0-0.7v-14.1
		h2.4v19.9H473c-0.2,0-0.4,0-0.5-0.1s-0.3-0.2-0.4-0.4l-11.5-15c0,0.2,0,0.5,0,0.7s0,0.4,0,0.6v14.2h-2.4v-19.9h1.4
		C459.9,671.5,460,671.6,460.2,671.6z"/>
	<path id="XMLID_203_" class="st3" d="M497,671.5v2.2h-9.6v6.6h7.7v2.1h-7.7v6.8h9.6v2.2h-12.3v-19.9L497,671.5L497,671.5z"/>
	<path id="XMLID_205_" class="st3" d="M524.9,684.6c0,1.1-0.1,2.1-0.4,3s-0.7,1.6-1.2,2.2s-1.2,1.1-2,1.4s-1.7,0.5-2.7,0.5
		c-0.9,0-1.8-0.1-2.8-0.4c0-0.3,0-0.5,0.1-0.8c0-0.3,0.1-0.5,0.1-0.8c0-0.2,0.1-0.3,0.2-0.4c0.1-0.1,0.2-0.1,0.4-0.1
		c0.2,0,0.4,0,0.7,0.1c0.3,0.1,0.6,0.1,1.1,0.1c0.6,0,1.2-0.1,1.6-0.3c0.5-0.2,0.9-0.5,1.2-0.9c0.3-0.4,0.6-0.9,0.8-1.5
		c0.2-0.6,0.3-1.3,0.3-2.2v-13h2.7L524.9,684.6L524.9,684.6L524.9,684.6z"/>
	<path id="XMLID_207_" class="st3" d="M547.5,671.5v2.2H538v6.6h7.7v2.1H538v6.8h9.6v2.2h-12.3v-19.9L547.5,671.5L547.5,671.5z"/>
	<path id="XMLID_209_" class="st3" d="M554.7,671.5h2.2c0.2,0,0.4,0.1,0.6,0.2c0.2,0.1,0.3,0.3,0.3,0.5l4.1,13.8
		c0.1,0.3,0.1,0.5,0.2,0.8s0.1,0.6,0.2,0.9c0.1-0.3,0.1-0.6,0.2-0.9c0.1-0.3,0.1-0.6,0.2-0.8l4.7-13.8c0.1-0.2,0.2-0.3,0.3-0.4
		c0.2-0.1,0.4-0.2,0.6-0.2h0.8c0.2,0,0.4,0.1,0.6,0.2c0.2,0.1,0.3,0.3,0.3,0.5l4.7,13.8c0.2,0.5,0.3,1,0.4,1.7
		c0.1-0.3,0.1-0.6,0.2-0.9c0.1-0.3,0.1-0.5,0.2-0.8l4.1-13.8c0-0.2,0.2-0.3,0.3-0.4c0.2-0.1,0.4-0.2,0.6-0.2h2.1l-6.2,19.9H574
		l-5-15.2c-0.1-0.3-0.2-0.6-0.3-1c0,0.2-0.1,0.4-0.1,0.5c0,0.2-0.1,0.3-0.1,0.5l-5.1,15.2H561L554.7,671.5z"/>
	<path id="XMLID_211_" class="st3" d="M603.1,671.5v2.2h-9.6v6.6h7.7v2.1h-7.7v6.8h9.6v2.2h-12.3v-19.9L603.1,671.5L603.1,671.5z"/>
	<path id="XMLID_213_" class="st3" d="M615.2,689.2h8.6v2.3h-11.3v-20h2.7V689.2L615.2,689.2z"/>
	<path id="XMLID_215_" class="st3" d="M635,689.2h8.6v2.3h-11.3v-20h2.7V689.2z"/>
	<path id="XMLID_217_" class="st3" d="M664.4,671.5v2.2h-9.6v6.6h7.7v2.1h-7.7v6.8h9.6v2.2h-12.3v-19.9L664.4,671.5L664.4,671.5z"/>
	<path id="XMLID_219_" class="st3" d="M676.8,683.1v8.3h-2.7v-19.9h5.6c1.3,0,2.3,0.1,3.3,0.4c0.9,0.3,1.7,0.6,2.3,1.1
		s1,1.1,1.3,1.7c0.3,0.7,0.4,1.4,0.4,2.3c0,0.7-0.1,1.4-0.3,2s-0.5,1.2-1,1.6c-0.4,0.5-0.9,0.9-1.5,1.2s-1.3,0.6-2.1,0.8
		c0.3,0.2,0.6,0.5,0.9,0.8l5.8,7.9h-2.4c-0.5,0-0.9-0.2-1.1-0.6l-5.2-7.1c-0.2-0.2-0.3-0.4-0.5-0.5s-0.5-0.1-0.8-0.1L676.8,683.1
		L676.8,683.1z M676.8,681.2h2.8c0.8,0,1.5-0.1,2.1-0.3s1.1-0.5,1.5-0.8s0.7-0.8,0.9-1.2c0.2-0.5,0.3-1,0.3-1.6
		c0-1.2-0.4-2.1-1.2-2.7c-0.8-0.6-1.9-0.9-3.5-0.9h-2.9L676.8,681.2L676.8,681.2z"/>
	<path id="XMLID_222_" class="st3" d="M704.9,683.5v7.9h-2.7v-7.9l-7.3-12h2.4c0.2,0,0.4,0.1,0.6,0.2s0.3,0.3,0.4,0.4l4.6,7.7
		c0.2,0.3,0.3,0.6,0.5,0.9c0.1,0.3,0.2,0.6,0.3,0.8c0.1-0.3,0.2-0.6,0.3-0.9c0.1-0.3,0.3-0.6,0.5-0.9l4.5-7.7
		c0.1-0.1,0.2-0.3,0.3-0.4c0.1-0.1,0.3-0.2,0.6-0.2h2.4L704.9,683.5z"/>
</g>
<path d="M472.5,470.8c0,0,0.1,0,0.2,0c-0.1-0.1-0.2-0.2-0.3-0.2C472.4,470.7,472.4,470.8,472.5,470.8z"/>
<path d="M332,289.5c12.2,0,24.5,0,36.7,0c0.7,0,1.3-0.2,2-0.3c-0.4-0.5-0.7-1.1-1.2-1.6c-7.6-7.2-15.1-14.4-22.8-21.6
	c-3.7-3.5-7.6-6.8-11.1-10.3c-1.5-1.5-2.5-1.3-3.9-0.1c-5.9,5.2-11.9,10.5-17.9,15.6c-6.4,5.5-12.8,10.8-19.2,16.2
	c-0.6,0.5-1,1.1-1.5,1.7c0.7,0.1,1.5,0.4,2.2,0.4C307.6,289.5,319.8,289.5,332,289.5z"/>
<path d="M469.7,464.5c-8.9-16.6-17.9-33.2-26.9-49.8c-8.9-16.4-17.8-32.9-26.7-49.3c-12-22-24-44-35.9-66.1
	c-0.8-1.5-1.8-2.1-3.5-2.1c-27.6,0-55.1,0-82.7,0c-0.6,0-1.3,0.2-1.9,0.3c0.4,0.5,0.7,1.1,1.2,1.6c7.8,7.6,15.6,15.3,23.5,22.8
	c9.2,8.8,18.4,17.4,27.6,26.1c7.8,7.4,15.4,15,23.1,22.4c8.2,7.9,16.6,15.6,24.8,23.4c8.3,7.9,16.4,15.9,24.7,23.8
	c13.9,13.3,27.9,26.5,41.9,39.7c4.3,4.1,8.5,8.2,12.8,12.3c0.2,0.4,0.5,0.7,0.7,1c-0.2-0.4-0.3-0.8-0.4-1.1
	C471.2,467.8,470.6,466.1,469.7,464.5z"/>
<path d="M481.1,297.1c-14.7,0-29.4-0.2-44.1-0.2c-15.8-0.1-31.7,0-47.5,0c-1.5,0-2.3,0-1.3,1.9c4.5,8.1,8.7,16.3,13.1,24.5
	c8.3,15.4,16.7,30.7,25,46.1c8.7,16.1,17.4,32.3,26.1,48.4c10,18.4,20,36.9,30,55.3c0.3,0.5,0.9,0.9,1.3,1.4
	c0.1-0.6,0.2-1.2,0.3-1.7c0-0.5,0-1,0-1.6c0.1-28.4,0.1-56.6,0.1-84.9c0-28.7,0-57.4,0.1-86.1C484.2,297.8,483.5,297.1,481.1,297.1z
	"/>
<path d="M360.6,268.7c6.4,6,12.8,12.1,19.2,18.1c0.4,0.5,0.9,0.9,1.5,1.3c0.6-0.5,1.2-0.8,1.7-1.3c6.7-5.9,13.4-12,20.2-17.9
	c9-7.8,18-15.5,27-23.2c1.3-1.1,1.4-1.8,0.1-3c-3.7-3.4-7.4-6.9-11-10.5c-8.7-8.5-17.4-16.9-26-25.5c-1.5-1.4-2.3-1.4-3.8-0.1
	c-6,5.3-12,10.6-18.2,15.8c-9.9,8.4-19.9,16.8-29.9,25.1c-1.6,1.3-1.6,2.1-0.1,3.5C347.8,256.8,354.2,262.8,360.6,268.7z"/>
<path d="M420.8,223.5c4.9,4.7,9.9,9.4,14.7,14.2c1.6,1.6,2.5,1.4,4,0c6.6-6,13.3-12,20.1-17.9c5.4-4.8,11-9.4,16.5-14.1
	c0.5-0.4,0.8-0.9,1.2-1.3c-0.6-0.1-1.2-0.4-1.9-0.4c-12-0.2-24.1-0.2-36.1-0.2c-11.9,0-23.8,0-35.6,0c-0.7,0-1.5,0.2-2.2,0.3
	c0.5,0.6,0.9,1.2,1.4,1.8C408.9,211.8,414.8,217.6,420.8,223.5z"/>
<path d="M435.3,250.8c-7.5,6.8-15,13.5-22.6,20.2c-6.5,5.7-13.1,11.3-19.6,16.9c-0.4,0.4-0.7,0.9-1.1,1.3c0.6,0.1,1.1,0.3,1.7,0.3
	c13.7,0,27.5,0,41.2,0c13.5,0,27.1,0,40.6,0c0.8,0,1.5-0.2,2.3-0.2c-0.5-0.7-0.9-1.4-1.5-2c-2.3-2.2-4.7-4.4-7.1-6.7
	c-10.1-9.9-20.3-19.8-30.3-29.7C437.5,249.5,436.7,249.6,435.3,250.8z"/>
<path d="M566.4,338.3c7-12.9,13.9-25.9,20.9-38.8c1.5-2.8,1.6-2.8-1.7-2.8c-21.4,0.1-42.8,0.2-64.3,0.3c-8.7,0-17.5,0.1-26.2-0.1
	c-2.7-0.1-3.3,0.8-3.3,3.4c0,28.8,0,57.4,0,86s0,57.2,0,85.8c0,0.9,0.2,1.8,0.3,2.7c0.5-0.7,1.1-1.3,1.5-2.1
	c1.9-3.6,3.7-7.3,5.7-10.9c8.8-16.3,17.6-32.6,26.5-48.9C539.3,388,552.9,363.2,566.4,338.3z"/>
<path d="M536.5,237.8c1.4,1.2,2.3,1.3,3.7-0.1c7.2-7.2,14.4-14.2,21.7-21.3c3.8-3.7,7.6-7.2,11.4-10.9c0.4-0.4,0.8-0.9,1.1-1.4
	c-0.6-0.1-1.3-0.4-1.9-0.4c-11.9,0.1-23.9,0.1-35.9,0.1c-12.2,0-24.3,0-36.5,0c-0.5,0-1,0.1-1.5,0.2c0.3,0.4,0.5,0.8,0.8,1.1
	C511.8,216,524.2,226.9,536.5,237.8z"/>
<path d="M493.8,282.6c5.1-4.9,10.1-9.9,15.2-14.8c7.4-7.1,14.7-14.2,22.2-21.1c1.7-1.6,1.7-2.4-0.1-4c-5.6-4.7-11.1-9.5-16.6-14.4
	c-6.8-6-13.5-12-20.3-18c-0.6-0.5-1.4-0.9-2.1-1.3c-0.1,0.8-0.2,1.5-0.2,2.3c-0.1,11.7-0.1,23.4-0.1,35.1c0,11.7,0,23.4,0,35.1
	c0,0.8,0.2,1.5,0.2,2.3C492.6,283.4,493.3,283.1,493.8,282.6z"/>
<path d="M599.5,297c-1.8,0-2.8,0.5-3.7,2.2c-4,7.7-8.1,15.3-12.2,22.9c-8.5,15.7-17,31.3-25.5,47c-8.8,16.3-17.6,32.6-26.4,48.9
	c-6.2,11.4-12.5,22.6-18.7,34c-3.2,5.9-6.1,11.9-9.2,17.9c0,0.2-0.1,0.3-0.1,0.5c0.1-0.1,0.2-0.2,0.3-0.3c2.4-2.4,4.8-4.8,7.3-7.1
	c10.1-9.6,20.3-19.2,30.4-28.9c7.6-7.3,15.1-14.8,22.7-22.1c8.8-8.5,17.8-16.8,26.7-25.2c7.4-7.1,14.6-14.3,22-21.3
	c15.5-14.8,31.1-29.4,46.7-44.2c7.5-7.2,14.9-14.5,22.4-21.7c0.6-0.6,1.1-1.4,1.7-2.1c-0.8-0.1-1.7-0.4-2.5-0.4
	C654.1,297.1,626.8,297.1,599.5,297z"/>
<path d="M544,253.7c-5.2-4.5-5.3-4.5-10.2,0.4c-6.5,6.4-12.8,12.8-19.3,19.1c-4.8,4.7-9.8,9.2-14.6,13.9c-0.7,0.6-1.2,1.4-1.7,2.2
	c0.9,0.1,1.8,0.3,2.8,0.3c13.2-0.1,26.6-0.1,39.9-0.1c13.6,0,27.3,0,40.9,0c0.7,0,1.3-0.1,2-0.2c-0.4-0.6-0.8-1.3-1.3-1.8
	c-6.9-6.1-13.8-12.3-20.7-18.4C555.9,263.9,550,258.8,544,253.7z"/>
<path d="M484,208.8c-0.5,0.3-1.1,0.5-1.5,0.9c-4.8,4.2-9.5,8.5-14.2,12.7c-7.8,6.8-15.7,13.6-23.6,20.4c-1.6,1.4-1.5,2.2,0,3.6
	c4.3,3.9,8.4,7.9,12.5,11.9c8.3,8.1,16.6,16.2,24.9,24.3c0.5,0.5,1.2,0.9,1.8,1.4c0.2-0.8,0.5-1.6,0.4-2.4l0.1-71.1
	C484.4,209.9,484.2,209.4,484,208.8z"/>
<path d="M607,287.2c-0.6,0.6-1,1.3-1.5,1.9c0.8,0.1,1.6,0.4,2.5,0.4c12.1,0,24.2,0,36.4,0c12.3,0,24.7,0,37,0c0.6,0,1.1-0.2,1.7-0.3
	c-0.3-0.4-0.6-0.8-1-1.1c-7.5-6.5-15-13.1-22.5-19.6c-5.2-4.4-10.4-8.7-15.6-13.2c-1.1-1-1.9-1.2-3.1-0.1c-5,4.7-10,9.2-15,13.9
	C619.6,275.1,613.3,281.1,607,287.2z"/>
<path d="M565.9,223.5c-6.5,6.3-13.1,12.6-19.7,18.8c-1.5,1.4-1.9,2.1-0.1,3.7c9.7,8.4,19.2,16.9,28.9,25.4c6,5.2,12.1,10.4,18,15.6
	c1.3,1.1,2.1,1.3,3.5-0.1c6.3-6.1,12.7-12,19-18c6.4-6,12.8-11.9,19.2-17.9c0.5-0.5,1-1.1,1.6-1.8c-0.8-0.8-1.5-1.5-2.2-2.1
	c-4.4-3.7-8.8-7.4-13.2-11.1c-11.1-9.5-22.3-19-33.4-28.6c-2.2-1.9-3.6-2-5.7,0.2C576.6,213,571.3,218.3,565.9,223.5z"/>
<path class="st8" d="M695.5,289.7c-8.1-7.1-16.3-14.2-24.5-21.2c-19.3-16.5-38.7-32.9-58.1-49.3c-9-7.6-18.1-15.1-27.1-22.7
	c-65.3,0-130.5,0-195.9-0.3c-9.1,7.7-18.3,15.4-27.4,23.1c-14.6,12.4-29.2,24.9-43.8,37.4c-4.2,3.6-8.6,7.2-12.8,10.8
	c-9.3,7.9-18.5,15.9-27.8,23.8c0,1.1,0,2.1,0,3.2c8.7,8.5,17.4,17,26.1,25.4c7,6.7,14.2,13.3,21.2,20c12.8,12.3,25.7,24.7,38.5,37
	c14.5,14,29,27.9,43.5,41.8c5.1,4.9,10.4,9.7,15.5,14.6c13.7,13.2,27.4,26.4,41.2,39.6c6.9,6.6,13.9,13.2,20.8,19.7
	c2.3,2.2,3.9,2.2,6.3,0c1.2-1.2,2.5-2.2,3.7-3.4c8.8-8.5,17.5-17,26.3-25.5c7.3-7.1,14.9-13.9,22.3-21c12.7-12.2,25.3-24.3,38-36.5
	c14.6-14,29.2-28.1,43.8-42.1c8.5-8.1,17.2-16.1,25.7-24.3c8.7-8.3,17.2-16.7,25.8-25c6.2-6,12.5-11.9,18.8-17.9
	C698.5,294.1,698.5,292.3,695.5,289.7z M403.7,203.8c11.8,0,23.7,0,35.6,0c12,0,24.1,0,36.1,0.2c0.7,0,1.3,0.3,1.9,0.4
	c-0.4,0.4-0.7,0.9-1.2,1.3c-5.5,4.7-11.1,9.3-16.5,14.1c-6.8,5.9-13.5,11.9-20.1,17.9c-1.5,1.4-2.4,1.6-4,0
	c-4.8-4.8-9.8-9.5-14.7-14.2c-6-5.9-11.9-11.7-17.9-17.6c-0.5-0.6-0.9-1.2-1.4-1.8C402.2,204,403,203.8,403.7,203.8z M469.2,280.6
	c2.4,2.3,4.8,4.5,7.1,6.7c0.6,0.6,1,1.3,1.5,2c-0.8,0-1.5,0.2-2.3,0.2c-13.5,0-27.1,0-40.6,0c-13.7,0-27.5,0-41.2,0
	c-0.6,0-1.1-0.2-1.7-0.3c0.4-0.4,0.7-0.9,1.1-1.3c6.5-5.6,13.1-11.2,19.6-16.9c7.6-6.7,15.1-13.4,22.6-20.2c1.4-1.2,2.2-1.3,3.6,0.1
	C448.9,260.8,459.1,270.7,469.2,280.6z M341.4,247.5c10-8.3,20-16.7,29.9-25.1c6.2-5.2,12.2-10.5,18.2-15.8c1.5-1.3,2.3-1.3,3.8,0.1
	c8.6,8.6,17.3,17,26,25.5c3.6,3.6,7.3,7.1,11,10.5c1.3,1.2,1.2,1.9-0.1,3c-9,7.7-18,15.4-27,23.2c-6.8,5.9-13.5,12-20.2,17.9
	c-0.5,0.5-1.1,0.8-1.7,1.3c-0.6-0.4-1.1-0.8-1.5-1.3c-6.4-6-12.8-12.1-19.2-18.1c-6.4-5.9-12.8-11.9-19.3-17.7
	C339.8,249.6,339.8,248.8,341.4,247.5z M294.6,287.4c6.4-5.4,12.8-10.7,19.2-16.2c6-5.1,12-10.4,17.9-15.6c1.4-1.2,2.4-1.4,3.9,0.1
	c3.5,3.5,7.4,6.8,11.1,10.3c7.7,7.2,15.2,14.4,22.8,21.6c0.5,0.5,0.8,1.1,1.2,1.6c-0.7,0.1-1.3,0.3-2,0.3c-12.2,0-24.5,0-36.7,0
	s-24.4,0-36.7,0c-0.7,0-1.5-0.3-2.2-0.4C293.6,288.5,294,287.9,294.6,287.4z M472.5,470.8c-0.1,0-0.1-0.1-0.1-0.2
	c-0.2-0.3-0.5-0.6-0.7-1c-4.3-4.1-8.5-8.2-12.8-12.3c-14-13.2-28-26.4-41.9-39.7c-8.3-7.9-16.4-15.9-24.7-23.8
	c-8.2-7.8-16.6-15.5-24.8-23.4c-7.7-7.4-15.3-15-23.1-22.4c-9.2-8.7-18.4-17.3-27.6-26.1c-7.9-7.5-15.7-15.2-23.5-22.8
	c-0.5-0.5-0.8-1.1-1.2-1.6c0.6-0.1,1.3-0.3,1.9-0.3c27.6,0,55.1,0,82.7,0c1.7,0,2.7,0.6,3.5,2.1c11.9,22.1,23.9,44.1,35.9,66.1
	c8.9,16.4,17.8,32.9,26.7,49.3c9,16.6,18,33.2,26.9,49.8c0.9,1.6,1.5,3.3,2.3,5c0.1,0.3,0.2,0.7,0.4,1.1c0.1,0,0.2,0.1,0.3,0.2
	C472.6,470.8,472.5,470.8,472.5,470.8z M484.1,386.3c0,28.3,0,56.5-0.1,84.9c0,0.6,0,1.1,0,1.6c-0.1,0.5-0.2,1.1-0.3,1.7
	c-0.4-0.5-1-0.9-1.3-1.4c-10-18.4-20-36.9-30-55.3c-8.7-16.1-17.4-32.3-26.1-48.4c-8.3-15.4-16.7-30.7-25-46.1
	c-4.4-8.2-8.6-16.4-13.1-24.5c-1-1.9-0.2-1.9,1.3-1.9c15.8,0,31.7-0.1,47.5,0c14.7,0,29.4,0.2,44.1,0.2c2.4,0,3.1,0.7,3.1,3.1
	C484.1,328.9,484.1,357.6,484.1,386.3z M483.9,284c-0.6-0.5-1.3-0.9-1.8-1.4c-8.3-8.1-16.6-16.2-24.9-24.3c-4.1-4-8.2-8-12.5-11.9
	c-1.5-1.4-1.6-2.2,0-3.6c7.9-6.8,15.8-13.6,23.6-20.4c4.7-4.2,9.4-8.5,14.2-12.7c0.4-0.4,1-0.6,1.5-0.9c0.2,0.6,0.4,1.1,0.4,1.7
	l-0.1,71.1C484.4,282.4,484.1,283.2,483.9,284z M644,255.3c5.2,4.5,10.4,8.8,15.6,13.2c7.5,6.5,15,13.1,22.5,19.6
	c0.4,0.3,0.7,0.7,1,1.1c-0.6,0.1-1.1,0.3-1.7,0.3c-12.3,0-24.7,0-37,0c-12.2,0-24.3,0-36.4,0c-0.9,0-1.7-0.3-2.5-0.4
	c0.5-0.6,0.9-1.3,1.5-1.9c6.3-6.1,12.6-12.1,18.9-18.1c5-4.7,10-9.2,15-13.9C642.1,254.1,642.9,254.3,644,255.3z M587.5,207.4
	c11.1,9.6,22.3,19.1,33.4,28.6c4.4,3.7,8.8,7.4,13.2,11.1c0.7,0.6,1.4,1.3,2.2,2.1c-0.6,0.7-1.1,1.3-1.6,1.8
	c-6.4,6-12.8,11.9-19.2,17.9c-6.3,6-12.7,11.9-19,18c-1.4,1.4-2.2,1.2-3.5,0.1c-5.9-5.2-12-10.4-18-15.6c-9.7-8.5-19.2-17-28.9-25.4
	c-1.8-1.6-1.4-2.3,0.1-3.7c6.6-6.2,13.2-12.5,19.7-18.8c5.4-5.2,10.7-10.5,15.9-15.9C583.9,205.4,585.3,205.5,587.5,207.4z
	 M583.8,289.3c-0.7,0.1-1.3,0.2-2,0.2c-13.6,0-27.3,0-40.9,0c-13.3,0-26.7,0-39.9,0.1c-1,0-1.9-0.2-2.8-0.3c0.5-0.8,1-1.6,1.7-2.2
	c4.8-4.7,9.8-9.2,14.6-13.9c6.5-6.3,12.8-12.7,19.3-19.1c4.9-4.9,5-4.9,10.2-0.4c6,5.1,11.9,10.2,17.8,15.4
	c6.9,6.1,13.8,12.3,20.7,18.4C583,288,583.4,288.7,583.8,289.3z M500.1,203.8c12.2,0,24.3,0,36.5,0c12,0,24,0,35.9-0.1
	c0.6,0,1.3,0.3,1.9,0.4c-0.3,0.5-0.7,1-1.1,1.4c-3.8,3.7-7.6,7.2-11.4,10.9c-7.3,7.1-14.5,14.1-21.7,21.3c-1.4,1.4-2.3,1.3-3.7,0.1
	c-12.3-10.9-24.7-21.8-37.1-32.7c-0.3-0.3-0.5-0.7-0.8-1.1C499.1,203.9,499.6,203.8,500.1,203.8z M491.8,246.4
	c0-11.7,0-23.4,0.1-35.1c0-0.8,0.1-1.5,0.2-2.3c0.7,0.4,1.5,0.8,2.1,1.3c6.8,6,13.5,12,20.3,18c5.5,4.9,11,9.7,16.6,14.4
	c1.8,1.6,1.8,2.4,0.1,4c-7.5,6.9-14.8,14-22.2,21.1c-5.1,4.9-10.1,9.9-15.2,14.8c-0.5,0.5-1.2,0.8-1.8,1.2c0-0.8-0.2-1.5-0.2-2.3
	C491.8,269.8,491.8,258.1,491.8,246.4z M493.6,472.7c-0.4,0.8-1,1.4-1.5,2.1c-0.1-0.9-0.3-1.8-0.3-2.7c0-28.6,0-57.2,0-85.8
	s0-57.2,0-86c0-2.6,0.6-3.5,3.3-3.4c8.7,0.2,17.5,0.1,26.2,0.1c21.5-0.1,42.9-0.2,64.3-0.3c3.3,0,3.2,0,1.7,2.8
	c-7,12.9-13.9,25.9-20.9,38.8c-13.5,24.9-27.1,49.7-40.6,74.6c-8.9,16.3-17.7,32.6-26.5,48.9C497.3,465.4,495.5,469.1,493.6,472.7z
	 M682.2,299.6c-7.5,7.2-14.9,14.5-22.4,21.7c-15.6,14.8-31.2,29.4-46.7,44.2c-7.4,7-14.6,14.2-22,21.3c-8.9,8.4-17.9,16.7-26.7,25.2
	c-7.6,7.3-15.1,14.8-22.7,22.1c-10.1,9.7-20.3,19.3-30.4,28.9c-2.5,2.3-4.9,4.7-7.3,7.1c-0.1,0.1-0.2,0.2-0.3,0.3
	c0-0.2,0.1-0.3,0.1-0.5c3.1-6,6-12,9.2-17.9c6.2-11.4,12.5-22.6,18.7-34c8.8-16.3,17.6-32.6,26.4-48.9c8.5-15.7,17-31.3,25.5-47
	c4.1-7.6,8.2-15.2,12.2-22.9c0.9-1.7,1.9-2.2,3.7-2.2c27.3,0.1,54.6,0.1,81.9,0.1c0.8,0,1.7,0.3,2.5,0.4
	C683.3,298.2,682.8,299,682.2,299.6z"/>
<g id="XMLID_140_">
	<g>
		<path id="XMLID_141_" class="st3" d="M175.8,545c10.7,0,18.6,2.7,23.8,8s7.8,13,7.8,23c0,6.5-1.3,12.2-3.8,17
			c-2.5,4.9-6.2,8.6-11,11.3s-10.7,4-17.5,4c-1.3,0-3.3,0-5.8-0.1c-2.6-0.1-4.8-0.1-6.7-0.1c-2.1,0-4.1,0-6.2,0
			c-2,0-3.7,0.1-4.9,0.2v-1.8c2-0.1,3.6-0.4,4.6-0.7c1-0.4,1.7-1.1,2.1-2.1c0.4-1.1,0.5-2.7,0.5-4.8v-44.4c0-2.2-0.2-3.8-0.5-4.9
			c-0.4-1-1.1-1.8-2.1-2.1c-1-0.4-2.6-0.6-4.6-0.7V545c1.3,0.1,2.9,0.1,4.9,0.2s4,0.1,6,0c2.1-0.1,4.4-0.1,7.1-0.2
			C172,545,174.2,545,175.8,545z M173.6,546.6c-2.7,0-4.5,0.5-5.4,1.5c-0.8,1-1.3,3.1-1.3,6.2V599c0,3.1,0.4,5.2,1.3,6.2
			c0.9,1,2.7,1.5,5.4,1.5c6.5,0,11.5-1.2,15.1-3.5c3.6-2.4,6.1-5.8,7.5-10.3s2.1-10.1,2.1-16.6c0-10-1.8-17.5-5.5-22.4
			C189.3,549.1,182.8,546.6,173.6,546.6z M238.9,545v1.8c-2,0.1-3.6,0.3-4.6,0.7s-1.7,1.1-2.1,2.1c-0.4,1-0.5,2.7-0.5,4.9v44.4
			c0,2.1,0.2,3.8,0.5,4.8c0.4,1.1,1.1,1.8,2.1,2.1c1,0.4,2.6,0.6,4.6,0.7v1.8c-1.4-0.1-3.1-0.2-5.1-0.2c-2.1,0-4.1,0-6.2,0
			c-2.3,0-4.5,0-6.5,0s-3.7,0.1-4.9,0.2v-1.8c2-0.1,3.6-0.4,4.6-0.7c1-0.4,1.7-1.1,2.1-2.1c0.4-1.1,0.5-2.7,0.5-4.8v-44.4
			c0-2.2-0.2-3.8-0.5-4.9c-0.4-1-1.1-1.8-2.1-2.1c-1-0.4-2.6-0.6-4.6-0.7V545c1.3,0.1,2.9,0.1,4.9,0.2s4.2,0.1,6.5,0.1
			c2.1,0,4.2,0,6.2-0.1S237.5,545.1,238.9,545z M271.6,544.6l21.8,56.3c0.9,2.3,1.9,3.8,3,4.5c1.1,0.7,2.2,1.1,3.1,1.2v1.8
			c-1.2-0.1-2.7-0.2-4.4-0.2c-1.7,0-3.5,0-5.2,0c-2.3,0-4.5,0-6.5,0s-3.7,0.1-4.9,0.2v-1.8c3-0.1,5-0.6,5.8-1.6
			c0.8-0.9,0.7-2.9-0.5-6l-16.6-44.5l1.4-1.2L253,593.9c-1.3,3.2-1.8,5.7-1.8,7.6c0.1,1.8,0.7,3.1,2.1,3.9c1.3,0.8,3.2,1.2,5.7,1.3
			v1.8c-1.7-0.1-3.4-0.2-5.2-0.2s-3.5,0-5.1,0c-1.5,0-2.8,0-3.8,0s-2,0.1-2.9,0.2v-1.8c1.2-0.3,2.4-1,3.7-2.1s2.4-3,3.4-5.7l21-54.2
			c0.2,0,0.5,0,0.7,0C271.1,544.6,271.3,544.6,271.6,544.6z M282.5,582.6v1.8h-26.7l0.9-1.8H282.5L282.5,582.6z M373.2,545v1.8
			c-2,0.1-3.6,0.3-4.6,0.7s-1.7,1.1-2.1,2.1s-0.5,2.7-0.5,4.9v44.4c0,2.1,0.2,3.8,0.5,4.8c0.4,1.1,1.1,1.8,2.1,2.1
			c1,0.4,2.6,0.6,4.6,0.7v1.8c-1.4-0.1-3.1-0.2-5.1-0.2c-2.1,0-4.1,0-6.2,0c-2.3,0-4.5,0-6.5,0s-3.7,0.1-4.9,0.2v-1.8
			c2-0.1,3.6-0.4,4.6-0.7c1-0.4,1.7-1.1,2.1-2.1c0.4-1.1,0.5-2.7,0.5-4.8v-49.2l0.4,0.3l-21.9,58.9h-1.4l-22.5-58.1V598
			c0,2.1,0.2,3.8,0.6,5.1c0.4,1.2,1.2,2.1,2.3,2.6s2.9,0.8,5.2,0.9v1.8c-1.1-0.1-2.5-0.2-4.2-0.2s-3.4,0-4.9,0s-3,0-4.5,0
			s-2.8,0.1-3.8,0.2v-1.8c2-0.1,3.6-0.4,4.6-0.9s1.7-1.4,2.1-2.6c0.4-1.2,0.5-2.9,0.5-5.1v-43.5c0-2.2-0.2-3.8-0.5-4.9
			c-0.4-1-1.1-1.8-2.1-2.1c-1-0.4-2.6-0.6-4.6-0.7V545c1,0.1,2.3,0.1,3.8,0.2s3,0.1,4.5,0.1c1.3,0,2.7,0,4.1-0.1s2.6-0.1,3.5-0.2
			l20.1,53.5l-1.5,0.7l20.1-54c0.7,0,1.4,0,2.1,0s1.4,0,2.1,0c2.1,0,4.2,0,6.2-0.1C370.1,545.1,371.8,545.1,373.2,545z M410.2,543.7
			c5.7,0,10.6,1.3,14.9,3.8c4.3,2.6,7.6,6.2,9.9,11c2.4,4.8,3.5,10.6,3.5,17.5c0,6.7-1.2,12.5-3.6,17.5s-5.8,8.9-10.1,11.7
			c-4.3,2.8-9.2,4.2-14.8,4.2c-5.7,0-10.6-1.3-14.9-3.8c-4.3-2.6-7.6-6.3-9.9-11.1c-2.4-4.8-3.5-10.6-3.5-17.4
			c0-6.7,1.2-12.5,3.7-17.5c2.4-5,5.8-8.9,10.1-11.7C399.7,545.1,404.6,543.7,410.2,543.7z M409.8,545.4c-3.9,0-7.2,1.3-10.1,4
			c-2.9,2.7-5.1,6.4-6.7,11.1s-2.4,10.2-2.4,16.4c0,6.3,0.9,11.8,2.6,16.5c1.8,4.7,4.1,8.3,7.2,10.8c3,2.5,6.3,3.8,10,3.8
			c3.9,0,7.2-1.3,10.1-4s5.1-6.4,6.7-11.1c1.6-4.7,2.4-10.2,2.4-16.3c0-6.4-0.9-11.9-2.6-16.6c-1.8-4.7-4.1-8.2-7.1-10.8
			C416.8,546.6,413.5,545.4,409.8,545.4z M503.2,545v1.8c-2,0.1-3.6,0.4-4.6,0.9s-1.7,1.4-2.1,2.6s-0.5,2.9-0.5,5.1v53.4
			c-0.4,0-0.7,0-1,0s-0.7,0-1,0l-37.6-58.1v47.2c0,2.1,0.2,3.8,0.6,5.1c0.4,1.2,1.2,2.1,2.3,2.6s2.9,0.8,5.2,0.9v1.8
			c-1.1-0.1-2.5-0.2-4.2-0.2s-3.4,0-4.9,0s-3,0-4.5,0s-2.8,0.1-3.8,0.2v-1.8c2-0.1,3.6-0.4,4.6-0.9s1.7-1.4,2.1-2.6s0.5-2.9,0.5-5.1
			v-43.4c0-2.2-0.2-3.8-0.5-4.9c-0.4-1-1.1-1.8-2.1-2.1c-1-0.4-2.6-0.6-4.6-0.7V545c1,0.1,2.3,0.1,3.8,0.2s3,0.1,4.5,0.1
			c1.3,0,2.6,0,3.8-0.1c1.2-0.1,2.3-0.1,3.2-0.2l31.6,48.7v-38.3c0-2.2-0.2-3.9-0.6-5.1c-0.4-1.2-1.2-2.1-2.3-2.6
			c-1.2-0.5-2.9-0.8-5.2-0.9V545c1.1,0.1,2.5,0.1,4.3,0.2s3.4,0.1,4.9,0.1c1.6,0,3.1,0,4.6-0.1C501,545.1,502.3,545.1,503.2,545z
			 M534.6,545c10.7,0,18.6,2.7,23.8,8s7.8,13,7.8,23c0,6.5-1.3,12.2-3.8,17c-2.5,4.9-6.2,8.6-11,11.3s-10.7,4-17.5,4
			c-1.3,0-3.3,0-5.8-0.1c-2.6-0.1-4.8-0.1-6.7-0.1c-2.1,0-4.1,0-6.2,0c-2,0-3.7,0.1-4.9,0.2v-1.8c2-0.1,3.6-0.4,4.6-0.7
			c1-0.4,1.7-1.1,2.1-2.1c0.4-1.1,0.5-2.7,0.5-4.8v-44.4c0-2.2-0.2-3.8-0.5-4.9c-0.4-1-1.1-1.8-2.1-2.1c-1-0.4-2.6-0.6-4.6-0.7V545
			c1.3,0.1,2.9,0.1,4.9,0.2s4,0.1,6,0c2.1-0.1,4.4-0.1,7.1-0.2C530.8,545,532.9,545,534.6,545z M532.4,546.6c-2.7,0-4.5,0.5-5.4,1.5
			c-0.8,1-1.3,3.1-1.3,6.2V599c0,3.1,0.4,5.2,1.3,6.2s2.7,1.5,5.4,1.5c6.5,0,11.5-1.2,15.1-3.5c3.6-2.4,6.1-5.8,7.5-10.3
			s2.1-10.1,2.1-16.6c0-10-1.8-17.5-5.5-22.4C548.1,549.1,541.6,546.6,532.4,546.6z M594,544c3,0,5.2,0.3,6.8,1s2.9,1.4,4.1,2.3
			c0.7,0.4,1.3,0.7,1.7,0.9c0.4,0.2,0.9,0.3,1.3,0.3c1,0,1.6-1.3,2-3.9h2.1c-0.1,1-0.1,2.2-0.2,3.6c-0.1,1.4-0.1,3.3-0.2,5.5
			c0,2.3,0,5.3,0,9.1h-2.1c-0.2-2.9-0.8-5.6-1.9-8.2s-2.6-4.8-4.7-6.4c-2.1-1.7-4.8-2.5-8.1-2.5c-3.2,0-5.8,1-7.8,2.9
			c-2.1,1.9-3.1,4.4-3.1,7.5c0,2.7,0.7,4.9,2.1,6.8c1.4,1.8,3.2,3.5,5.5,4.9c2.3,1.5,4.8,3,7.5,4.7c3.1,1.9,5.9,3.8,8.3,5.7
			c2.4,1.9,4.3,4,5.7,6.2c1.4,2.3,2.1,5,2.1,8.2c0,3.8-0.9,7-2.6,9.5c-1.7,2.5-4,4.4-6.9,5.6c-2.9,1.3-6,1.9-9.5,1.9
			c-3.2,0-5.7-0.4-7.5-1.1c-1.8-0.7-3.4-1.5-4.7-2.2c-1.3-0.8-2.3-1.3-3-1.3c-1,0-1.6,1.3-2,3.9h-2.1c0.1-1.3,0.2-2.7,0.2-4.4
			s0.1-3.9,0.1-6.7c0-2.7,0-6.2,0-10.4h2.1c0.2,3.6,0.9,6.9,2,10s2.8,5.6,5.1,7.5s5.4,2.8,9.2,2.8c2.9,0,5.6-0.9,8-2.8
			s3.6-4.9,3.6-9.1c0-3.6-1.3-6.7-3.8-9c-2.6-2.4-5.9-4.8-10.1-7.3c-2.8-1.7-5.4-3.5-7.9-5.3c-2.4-1.8-4.4-3.9-5.9-6.2
			c-1.5-2.4-2.2-5.2-2.2-8.5c0-3.5,0.8-6.4,2.4-8.7c1.6-2.3,3.7-4,6.2-5.1C588.4,544.6,591.1,544,594,544z M645.5,545
			c1.3,0.1,2.9,0.1,4.9,0.2s4,0.1,6,0.1c2.8,0,5.5,0,8.1-0.1s4.4-0.1,5.5-0.1c6.3,0,11,1.3,14.1,3.9c3.2,2.6,4.7,6,4.7,10.1
			c0,2.1-0.4,4.1-1.3,6.1c-0.9,2-2.3,3.8-4.3,5.5c-2,1.6-4.7,3-8,4v0.2c4.7,0.6,8.4,1.7,11.1,3.4c2.7,1.6,4.5,3.6,5.6,5.8
			s1.6,4.5,1.6,7c0,5.1-1.9,9.2-5.7,12.5s-9.1,4.9-15.8,4.9c-1.3,0-3.3,0-5.9-0.1c-2.6-0.1-5.8-0.1-9.5-0.1c-2.1,0-4.1,0-6.2,0
			c-2,0-3.7,0.1-4.9,0.2v-1.8c2-0.1,3.6-0.4,4.6-0.7c1-0.4,1.7-1.1,2.1-2.1c0.4-1.1,0.5-2.7,0.5-4.8v-44.6c0-2.2-0.2-3.8-0.5-4.9
			c-0.4-1-1.1-1.8-2.1-2.1c-1-0.4-2.6-0.6-4.6-0.7L645.5,545L645.5,545z M667.7,546.8c-2.7,0-4.5,0.5-5.4,1.5
			c-0.8,1-1.3,3.1-1.3,6.2v44.4c0,3.1,0.4,5.1,1.3,6c0.9,0.9,2.7,1.4,5.4,1.4c5.8,0,10.1-1.4,12.8-4.1c2.7-2.7,4-6.6,4-11.6
			c0-4.6-1.2-8.1-3.7-10.6s-6.5-3.8-12.2-3.8h-9.2v-1.5h7.7c3.5,0,6.2-0.7,8.1-2c1.9-1.3,3.2-3.1,3.9-5.4c0.7-2.2,1.1-4.6,1.1-7.2
			c0-4.4-1-7.7-2.9-10C675.3,547.9,672.1,546.8,667.7,546.8z M750.1,545v1.8c-1.1,0.2-2.3,1-3.4,2.2c-1.1,1.2-2.4,3.1-3.8,5.8
			l-18.1,35.7h-1.5l-20.9-38.7c-1.2-2.2-2.2-3.6-3-4.2s-1.5-0.9-2.2-0.9v-1.9c1.2,0.1,2.4,0.1,3.7,0.2s2.7,0.1,4.2,0.1
			c2,0,4.1,0,6.3,0s4.3-0.1,6.2-0.2v1.9c-1.5,0-2.8,0.2-3.9,0.5c-1.1,0.4-1.9,1-2.2,2c-0.4,1-0.1,2.3,0.8,4l15.1,29l-0.7,0.5
			l11.9-23.7c1.7-3.3,2.5-5.8,2.5-7.6c0-1.8-0.7-3-2.1-3.7c-1.4-0.7-3.3-1.1-5.8-1.1v-1.8c1.7,0.1,3.5,0.1,5.3,0.2s3.5,0.1,5,0.1
			s2.8,0,3.8-0.1C748.2,545.1,749.2,545.1,750.1,545z M728.9,581.1v17.7c0,2.1,0.2,3.8,0.5,4.8c0.4,1.1,1.1,1.8,2.1,2.1
			c1,0.4,2.6,0.6,4.6,0.7v1.8c-1.4-0.1-3.1-0.2-5.1-0.2c-2.1,0-4.1,0-6.2,0c-2.3,0-4.5,0-6.5,0s-3.7,0.1-4.9,0.2v-1.8
			c2-0.1,3.6-0.4,4.6-0.7c1-0.4,1.7-1.1,2.1-2.1c0.4-1.1,0.5-2.7,0.5-4.8v-18.3l4.8,5.5L728.9,581.1z M776.4,545
			c1.3,0.1,2.9,0.1,4.9,0.2s4,0.1,6,0.1c2.8,0,5.5,0,8.1-0.1s4.4-0.1,5.5-0.1c6.3,0,11,1.3,14.1,3.9c3.2,2.6,4.7,6,4.7,10.1
			c0,2.1-0.4,4.1-1.3,6.1c-0.9,2-2.3,3.8-4.3,5.5c-2,1.6-4.7,3-8,4v0.2c4.7,0.6,8.4,1.7,11.1,3.4c2.7,1.6,4.5,3.6,5.6,5.8
			s1.6,4.5,1.6,7c0,5.1-1.9,9.2-5.7,12.5s-9.1,4.9-15.8,4.9c-1.3,0-3.3,0-5.9-0.1c-2.6-0.1-5.8-0.1-9.5-0.1c-2.1,0-4.1,0-6.2,0
			c-2,0-3.7,0.1-4.9,0.2v-1.8c2-0.1,3.6-0.4,4.6-0.7c1-0.4,1.7-1.1,2.1-2.1c0.4-1.1,0.5-2.7,0.5-4.8v-44.6c0-2.2-0.2-3.8-0.5-4.9
			c-0.4-1-1.1-1.8-2.1-2.1c-1-0.4-2.6-0.6-4.6-0.7L776.4,545L776.4,545z M798.6,546.8c-2.7,0-4.5,0.5-5.4,1.5
			c-0.8,1-1.3,3.1-1.3,6.2v44.4c0,3.1,0.4,5.1,1.3,6c0.9,0.9,2.7,1.4,5.4,1.4c5.8,0,10.1-1.4,12.8-4.1c2.7-2.7,4-6.6,4-11.6
			c0-4.6-1.2-8.1-3.7-10.6s-6.5-3.8-12.2-3.8h-9.2v-1.5h7.7c3.5,0,6.2-0.7,8.1-2c1.9-1.3,3.2-3.1,3.9-5.4c0.7-2.2,1.1-4.6,1.1-7.2
			c0-4.4-1-7.7-2.9-10C806.2,547.9,803,546.8,798.6,546.8z"/>
	</g>
</g>
</svg>
