<?xml version="1.0" encoding="utf-8"?>
<!-- Generator: Adobe Illustrator 19.0.0, SVG Export Plug-In . SVG Version: 6.00 Build 0)  -->
<svg version="1.1" xmlns="http://www.w3.org/2000/svg" xmlns:xlink="http://www.w3.org/1999/xlink" x="0px" y="0px"
	 viewBox="0 0 750 750" style="enable-background:new 0 0 750 750;" xml:space="preserve">
<style type="text/css">
	.st0{display:none;}
	.st1{display:inline;stroke:#000000;stroke-miterlimit:10;}
	.st2{display:inline;}
	.st3{fill:#E3BD82;}
	.st4{font-family:'PlayfairDisplay-Regular';}
	.st5{font-size:118.6935px;}
	.st6{font-family:'Lato-Regular';}
	.st7{font-size:36.8378px;}
	.st8{fill:#E2BD84;}
	.st9{font-size:27.7692px;}
	.st10{letter-spacing:5;}
	.st11{font-size:89.4739px;}
</style>
<g id="Circle_BG" class="st0">
	<circle id="XMLID_1_" class="st1" cx="375" cy="375" r="375"/>
</g>
<g id="Square_BG" class="st0">
	<rect id="XMLID_47_" class="st2" width="750" height="750"/>
</g>
<g id="OLD__x2A_retired_x2A_" class="st0">
	<g id="XMLID_6_" class="st2">
		<text id="XMLID_46_" transform="matrix(1 0 0 1 -69.3535 599.626)" class="st3 st4 st5">D</text>
		<text id="XMLID_45_" transform="matrix(1 0 0 1 15.2671 599.626)" class="st3 st4 st5">I</text>
		<text id="XMLID_44_" transform="matrix(1 0 0 1 54.3179 599.626)" class="st3 st4 st5">A</text>
		<text id="XMLID_43_" transform="matrix(1 0 0 1 127.896 599.626)" class="st3 st4 st5">M</text>
		<text id="XMLID_42_" transform="matrix(1 0 0 1 230.0869 599.626)" class="st3 st4 st5">O</text>
		<text id="XMLID_41_" transform="matrix(1 0 0 1 316.8384 599.626)" class="st3 st4 st5">N</text>
		<text id="XMLID_40_" transform="matrix(1 0 0 1 399.4512 599.626)" class="st3 st4 st5">D</text>
		<text id="XMLID_39_" transform="matrix(1 0 0 1 484.0625 599.626)" class="st3 st4 st5">S</text>
		<text id="XMLID_38_" transform="matrix(1 0 0 1 575.333 599.626)" class="st3 st4 st5">B</text>
		<text id="XMLID_37_" transform="matrix(1 0 0 1 648.0859 599.626)" class="st3 st4 st5">Y</text>
		<text id="XMLID_36_" transform="matrix(1 0 0 1 745.4063 599.626)" class="st3 st4 st5">B</text>
	</g>
	<g id="XMLID_2_" class="st2">
		<text id="XMLID_35_" transform="matrix(1 0 0 1 70.0986 693.2773)" class="st3 st6 st7">C</text>
		<text id="XMLID_34_" transform="matrix(1 0 0 1 103.7739 693.2773)" class="st3 st6 st7">U</text>
		<text id="XMLID_33_" transform="matrix(1 0 0 1 139.1001 693.2773)" class="st3 st6 st7">S</text>
		<text id="XMLID_32_" transform="matrix(1 0 0 1 167.0684 693.2773)" class="st3 st6 st7">T</text>
		<text id="XMLID_31_" transform="matrix(1 0 0 1 197.2524 693.2773)" class="st3 st6 st7">O</text>
		<text id="XMLID_30_" transform="matrix(1 0 0 1 235.0781 693.2773)" class="st3 st6 st7">M</text>
		<text id="XMLID_29_" transform="matrix(1 0 0 1 292.9717 693.2773)" class="st3 st6 st7">F</text>
		<text id="XMLID_28_" transform="matrix(1 0 0 1 322.2627 693.2773)" class="st3 st6 st7">I</text>
		<text id="XMLID_27_" transform="matrix(1 0 0 1 342.0474 693.2773)" class="st3 st6 st7">N</text>
		<text id="XMLID_26_" transform="matrix(1 0 0 1 378.332 693.2773)" class="st3 st6 st7">E</text>
		<text id="XMLID_25_" transform="matrix(1 0 0 1 423.751 693.2773)" class="st3 st6 st7">J</text>
		<text id="XMLID_24_" transform="matrix(1 0 0 1 448.5615 693.2773)" class="st3 st6 st7">E</text>
		<text id="XMLID_23_" transform="matrix(1 0 0 1 478.4072 693.2773)" class="st3 st6 st7">W</text>
		<text id="XMLID_22_" transform="matrix(1 0 0 1 524.3721 693.2773)" class="st3 st6 st7">L</text>
		<text id="XMLID_21_" transform="matrix(1 0 0 1 551.7549 693.2773)" class="st3 st6 st7">L</text>
		<text id="XMLID_20_" transform="matrix(1 0 0 1 579.1328 693.2773)" class="st3 st6 st7">E</text>
		<text id="XMLID_19_" transform="matrix(1 0 0 1 608.9824 693.2773)" class="st3 st6 st7">R</text>
		<text id="XMLID_18_" transform="matrix(1 0 0 1 641.1484 693.2773)" class="st3 st6 st7">Y</text>
	</g>
	<g id="XMLID_3_">
		<g id="XMLID_4_" class="st2">
			<g id="XMLID_5_">
				<g id="XMLID_53_">
					<path id="XMLID_54_" class="st8" d="M504.8,50c12,10,24,20.1,35.9,30.2c25.7,21.8,51.5,43.5,77.1,65.4
						c10.9,9.3,21.7,18.7,32.5,28.2c4,3.5,4,5.8,0.2,9.5c-8.3,7.9-16.7,15.7-25,23.7c-11.4,11-22.7,22.2-34.2,33.1
						c-11.3,10.8-22.8,21.4-34.1,32.3c-19.4,18.6-38.8,37.2-58.2,55.9c-16.8,16.1-33.6,32.3-50.4,48.4c-9.8,9.4-19.8,18.5-29.6,27.9
						c-11.7,11.2-23.3,22.6-34.9,33.9c-1.6,1.5-3.3,3-4.9,4.5c-3.2,2.9-5.3,3-8.4,0.1c-9.2-8.7-18.4-17.3-27.5-26.1
						c-18.2-17.5-36.4-35-54.7-52.5c-6.8-6.5-13.7-12.8-20.5-19.3c-19.2-18.4-38.4-36.9-57.7-55.4c-17-16.4-34-32.8-51.1-49.1
						c-9.3-8.9-18.8-17.6-28.1-26.5c-11.6-11.2-23.1-22.4-34.6-33.7c0-1.4,0-2.8,0-4.2c12.3-10.5,24.5-21.1,36.9-31.6
						c5.6-4.8,11.4-9.5,17-14.3c19.4-16.5,38.7-33.1,58.1-49.6C220.7,70.4,232.8,60.2,245,50C331.6,50,418.2,50,504.8,50z
						 M354.3,413.5c0,0.1,0.1,0.2,0.1,0.3c0,0,0.1,0,0.2,0C354.6,413.8,354.4,413.7,354.3,413.5c-0.2-0.5-0.4-1-0.5-1.5
						c-1-2.2-1.9-4.5-3-6.6c-11.9-22-23.8-44-35.7-66c-11.8-21.8-23.6-43.6-35.4-65.4c-15.9-29.2-31.8-58.4-47.6-87.7
						c-1.1-2-2.3-2.8-4.6-2.8c-36.6,0.1-73.1,0-109.7,0.1c-0.9,0-1.7,0.3-2.6,0.4c0.5,0.7,0.9,1.5,1.6,2.1
						c10.4,10.1,20.7,20.3,31.1,30.3c12.1,11.6,24.5,23,36.6,34.7c10.3,9.8,20.4,19.9,30.7,29.8c10.9,10.4,22,20.6,32.9,31
						c11,10.5,21.8,21.1,32.8,31.6c18.5,17.6,37,35.1,55.6,52.7c5.7,5.4,11.3,10.9,17,16.3C353.7,412.8,354,413.2,354.3,413.5z
						 M396.2,413c3.2-3.1,6.4-6.3,9.6-9.4c13.5-12.8,27-25.5,40.4-38.3c10.1-9.7,20-19.6,30.1-29.3c11.7-11.2,23.6-22.3,35.4-33.5
						c9.8-9.4,19.3-19,29.2-28.3c20.6-19.6,41.3-39,61.9-58.6c10-9.5,19.8-19.2,29.7-28.8c0.8-0.8,1.5-1.9,2.2-2.8
						c-1.1-0.2-2.2-0.5-3.3-0.5c-36.2,0-72.4,0-108.6-0.1c-2.4,0-3.7,0.7-4.9,2.9c-5.3,10.2-10.7,20.3-16.2,30.4
						c-11.2,20.8-22.6,41.5-33.8,62.3c-11.7,21.6-23.3,43.2-35,64.8c-8.2,15.1-16.6,30-24.8,45.1c-4.2,7.8-8.1,15.8-12.2,23.7
						c0,0.2-0.1,0.4-0.1,0.7C395.9,413.2,396.1,413.1,396.2,413z M380,301.8c0,38,0,75.9,0,113.9c0,1.2,0.3,2.4,0.4,3.6
						c0.7-0.9,1.4-1.8,1.9-2.7c2.5-4.8,4.9-9.7,7.5-14.5c11.7-21.6,23.4-43.2,35.1-64.8c17.9-33,36-65.9,53.9-98.9
						c9.3-17.1,18.4-34.3,27.7-51.4c2-3.7,2.1-3.7-2.2-3.7c-28.4,0.1-56.8,0.3-85.2,0.4c-11.6,0-23.2,0.2-34.8-0.1
						c-3.6-0.1-4.4,1.1-4.4,4.5C380,225.9,380,263.8,380,301.8z M369.9,301.8c0-38.1,0-76.1,0.1-114.2c0-3.2-0.9-4.1-4.1-4.1
						c-19.5,0-39-0.2-58.5-0.3c-21-0.1-42,0-63,0c-2,0-3.1-0.1-1.7,2.5c5.9,10.8,11.6,21.7,17.4,32.5c11,20.4,22.2,40.7,33.2,61.1
						c11.6,21.4,23.1,42.8,34.7,64.3c13.2,24.5,26.5,48.9,39.8,73.3c0.4,0.7,1.1,1.2,1.7,1.9c0.1-0.8,0.3-1.5,0.3-2.3
						c0.1-0.7,0-1.4,0-2.1C369.9,376.8,369.9,339.3,369.9,301.8z M233.4,171.5c0.8-0.6,1.6-1.1,2.3-1.7c8.9-7.9,17.8-15.9,26.8-23.7
						c11.9-10.3,23.8-20.6,35.8-30.8c1.8-1.5,1.9-2.4,0.1-4c-5-4.5-9.8-9.2-14.6-13.9c-11.5-11.2-23.1-22.5-34.5-33.8
						c-1.9-1.9-3.1-1.9-5.1-0.1c-7.9,7.1-16,14-24.1,20.9c-13.2,11.2-26.4,22.3-39.7,33.3c-2.1,1.8-2.2,2.8-0.1,4.7
						c8.6,7.8,17.1,15.6,25.6,23.5c8.5,8,17,16,25.5,24.1C232,170.5,232.7,170.9,233.4,171.5z M571.7,119.9c-1.1-1-1.9-1.9-2.9-2.7
						c-5.8-4.9-11.7-9.8-17.5-14.8c-14.8-12.6-29.6-25.2-44.3-38c-3-2.6-4.8-2.6-7.6,0.3c-6.9,7.2-14,14.2-21.1,21.1
						c-8.6,8.4-17.4,16.7-26.2,24.9c-2,1.8-2.5,2.8-0.1,4.9c12.9,11.1,25.5,22.5,38.3,33.7c7.9,6.9,16,13.7,23.9,20.7
						c1.7,1.5,2.8,1.7,4.6-0.1c8.3-8,16.8-15.9,25.2-23.8c8.5-7.9,17-15.8,25.4-23.7C570.2,121.6,570.9,120.8,571.7,119.9z
						 M445.2,173.4c18.1,0,36.2,0,54.3,0c0.9,0,1.8-0.2,2.7-0.3c-0.6-0.8-1-1.7-1.8-2.3c-9.1-8.1-18.3-16.3-27.5-24.3
						c-7.8-6.9-15.7-13.7-23.6-20.5c-6.9-6-7-5.9-13.6,0.5c-8.6,8.4-17,17-25.7,25.4c-6.4,6.2-13,12.2-19.4,18.4
						c-0.9,0.8-1.5,1.9-2.3,2.9c1.2,0.1,2.4,0.3,3.7,0.3C409.8,173.4,427.5,173.4,445.2,173.4z M304.5,173.4c18,0,35.9,0,53.9,0
						c1,0,2-0.2,3-0.3c-0.6-0.9-1.2-1.9-2-2.6c-3.1-3-6.3-5.8-9.4-8.8c-13.4-13.1-26.9-26.2-40.2-39.4c-1.9-1.8-2.9-1.8-4.8-0.1
						c-9.9,9-19.9,17.9-30,26.8c-8.6,7.6-17.4,15-26.1,22.5c-0.6,0.5-1,1.1-1.5,1.7c0.8,0.1,1.5,0.3,2.3,0.3
						C268.1,173.4,286.3,173.4,304.5,173.4z M370.2,68.6c0-0.7-0.3-1.5-0.5-2.2c-0.7,0.4-1.4,0.7-2,1.2
						c-6.3,5.6-12.5,11.3-18.9,16.9c-10.4,9.1-20.8,18.1-31.3,27c-2.2,1.8-2,2.9,0,4.7c5.6,5.2,11.1,10.5,16.6,15.8
						c11,10.7,22,21.5,33.1,32.3c0.7,0.7,1.6,1.2,2.4,1.9c0.2-1.1,0.6-2.2,0.6-3.2 M380,116.2c0,15.5,0,31.1,0,46.6c0,1,0.2,2,0.3,3
						c0.8-0.5,1.7-1,2.4-1.6c6.7-6.5,13.4-13.1,20.1-19.6c9.8-9.4,19.5-18.8,29.5-28c2.3-2.1,2.3-3.2-0.2-5.2
						c-7.5-6.2-14.8-12.6-22.1-19.1c-9-7.9-18-16-27-23.9c-0.8-0.7-1.9-1.1-2.8-1.7c-0.1,1-0.3,2-0.3,3
						C380,85.1,380,100.7,380,116.2z M168.1,173.4c16.2,0,32.5,0,48.7,0c0.9,0,1.7-0.3,2.6-0.4c-0.5-0.7-0.9-1.5-1.6-2.1
						c-10-9.6-20.1-19.2-30.2-28.7c-4.9-4.6-10-9-14.8-13.7c-2-2-3.3-1.8-5.1-0.1c-7.9,7-15.8,13.9-23.7,20.7
						c-8.4,7.2-17,14.3-25.5,21.5c-0.8,0.6-1.3,1.5-2,2.2c1,0.2,1.9,0.5,2.9,0.5C135.6,173.4,151.9,173.4,168.1,173.4z M582.4,173.4
						c16.4,0,32.7,0,49.1,0c0.7,0,1.5-0.3,2.2-0.4c-0.4-0.5-0.8-1-1.3-1.5c-9.9-8.7-19.8-17.4-29.8-26c-6.8-5.9-13.9-11.6-20.7-17.5
						c-1.5-1.3-2.6-1.6-4.1-0.2c-6.6,6.2-13.3,12.3-19.9,18.5c-8.4,7.9-16.7,16-25.1,24c-0.8,0.7-1.4,1.7-2,2.6
						c1.1,0.2,2.2,0.5,3.3,0.5C550.2,173.4,566.3,173.4,582.4,173.4z M439.5,59.7c-16.1,0-32.3,0-48.4,0c-0.7,0-1.3,0.1-2,0.2
						c0.4,0.5,0.7,1.1,1.1,1.5c16.4,14.5,32.9,28.9,49.3,43.4c1.8,1.6,3,1.8,4.9-0.1c9.5-9.5,19.1-18.8,28.8-28.2
						c5-4.9,10.1-9.6,15.1-14.4c0.6-0.5,1-1.2,1.5-1.8c-0.8-0.2-1.7-0.5-2.5-0.5C471.3,59.7,455.4,59.7,439.5,59.7z M310.4,59.7
						c-15.8,0-31.5,0-47.3,0c-1,0-1.9,0.3-2.9,0.4c0.6,0.8,1.2,1.6,1.9,2.3c7.9,7.8,15.8,15.6,23.8,23.3
						c6.5,6.3,13.1,12.4,19.5,18.8c2.1,2.1,3.3,1.8,5.3,0c8.8-8,17.7-15.9,26.6-23.8c7.2-6.3,14.6-12.5,21.9-18.8
						c0.6-0.5,1.1-1.2,1.6-1.8c-0.8-0.2-1.7-0.5-2.5-0.5C342.3,59.7,326.3,59.7,310.4,59.7z"/>
				</g>
			</g>
		</g>
	</g>
</g>
<g id="Vector_Logo" class="st0">
	<g id="XMLID_112_" class="st2">
		<text id="XMLID_57_" transform="matrix(1 0 0 1 145.1279 619.9326)" class="st3 st6 st9 st10">CUSTOM FINE JEWELLERY</text>
		<path id="XMLID_58_" class="st8" d="M472.8,125c9,7.6,18.1,15.1,27.1,22.7c19.4,16.4,38.8,32.8,58.1,49.3
			c8.2,7,16.4,14.1,24.5,21.2c3,2.6,3,4.4,0.1,7.2c-6.3,6-12.6,11.9-18.8,17.9c-8.6,8.3-17.1,16.7-25.8,25
			c-8.5,8.2-17.2,16.2-25.7,24.3c-14.6,14-29.2,28.1-43.8,42.1c-12.7,12.2-25.3,24.3-38,36.5c-7.4,7.1-15,13.9-22.3,21
			c-8.8,8.5-17.5,17-26.3,25.5c-1.2,1.2-2.5,2.2-3.7,3.4c-2.4,2.2-4,2.2-6.3,0c-6.9-6.5-13.9-13.1-20.8-19.7
			c-13.8-13.2-27.5-26.4-41.2-39.6c-5.1-4.9-10.4-9.7-15.5-14.6c-14.5-13.9-29-27.8-43.5-41.8c-12.8-12.3-25.7-24.7-38.5-37
			c-7-6.7-14.2-13.3-21.2-20c-8.7-8.4-17.4-16.9-26.1-25.4c0-1.1,0-2.1,0-3.2c9.3-7.9,18.5-15.9,27.8-23.8
			c4.2-3.6,8.6-7.2,12.8-10.8c14.6-12.5,29.2-25,43.8-37.4c9.1-7.7,18.3-15.4,27.4-23.1C342.3,125,407.5,125,472.8,125z
			 M359.4,399.1c0,0.1,0,0.2,0.1,0.2c0,0,0.1,0,0.2,0C359.6,399.2,359.5,399.1,359.4,399.1c-0.2-0.4-0.3-0.8-0.4-1.1
			c-0.8-1.7-1.4-3.4-2.3-5c-8.9-16.6-17.9-33.2-26.9-49.8c-8.9-16.4-17.8-32.9-26.7-49.3c-12-22-24-44-35.9-66.1
			c-0.8-1.5-1.8-2.1-3.5-2.1c-27.6,0-55.1,0-82.7,0c-0.6,0-1.3,0.2-1.9,0.3c0.4,0.5,0.7,1.1,1.2,1.6c7.8,7.6,15.6,15.3,23.5,22.8
			c9.2,8.8,18.4,17.4,27.6,26.1c7.8,7.4,15.4,15,23.1,22.4c8.2,7.9,16.6,15.6,24.8,23.4c8.3,7.9,16.4,15.9,24.7,23.8
			c13.9,13.3,27.9,26.5,41.9,39.7c4.3,4.1,8.5,8.2,12.8,12.3C358.9,398.5,359.2,398.8,359.4,399.1z M391,398.6
			c2.4-2.4,4.8-4.8,7.3-7.1c10.1-9.6,20.3-19.2,30.4-28.9c7.6-7.3,15.1-14.8,22.7-22.1c8.8-8.5,17.8-16.8,26.7-25.2
			c7.4-7.1,14.6-14.3,22-21.3c15.5-14.8,31.1-29.4,46.7-44.2c7.5-7.2,14.9-14.5,22.4-21.7c0.6-0.6,1.1-1.4,1.7-2.1
			c-0.8-0.1-1.7-0.4-2.5-0.4c-27.3,0-54.6,0-81.9-0.1c-1.8,0-2.8,0.5-3.7,2.2c-4,7.7-8.1,15.3-12.2,22.9c-8.5,15.7-17,31.3-25.5,47
			c-8.8,16.3-17.6,32.6-26.4,48.9c-6.2,11.4-12.5,22.6-18.7,34c-3.2,5.9-6.1,11.9-9.2,17.9c0,0.2-0.1,0.3-0.1,0.5
			C390.8,398.8,390.9,398.7,391,398.6z M378.8,314.8c0,28.6,0,57.2,0,85.8c0,0.9,0.2,1.8,0.3,2.7c0.5-0.7,1.1-1.3,1.5-2.1
			c1.9-3.6,3.7-7.3,5.7-10.9c8.8-16.3,17.6-32.6,26.5-48.9c13.5-24.9,27.1-49.7,40.6-74.6c7-12.9,13.9-25.9,20.9-38.8
			c1.5-2.8,1.6-2.8-1.7-2.8c-21.4,0.1-42.8,0.2-64.3,0.3c-8.7,0-17.5,0.1-26.2-0.1c-2.7-0.1-3.3,0.8-3.3,3.4
			C378.8,257.6,378.8,286.2,378.8,314.8z M371.1,314.8c0-28.7,0-57.4,0.1-86.1c0-2.4-0.7-3.1-3.1-3.1c-14.7,0-29.4-0.2-44.1-0.2
			c-15.8-0.1-31.7,0-47.5,0c-1.5,0-2.3,0-1.3,1.9c4.5,8.1,8.7,16.3,13.1,24.5c8.3,15.4,16.7,30.7,25,46.1
			c8.7,16.1,17.4,32.3,26.1,48.4c10,18.4,20,36.9,30,55.3c0.3,0.5,0.9,0.9,1.3,1.4c0.1-0.6,0.2-1.2,0.3-1.7c0-0.5,0-1,0-1.6
			C371.1,371.3,371.1,343.1,371.1,314.8z M268.3,216.6c0.6-0.5,1.2-0.8,1.7-1.3c6.7-5.9,13.4-12,20.2-17.9c9-7.8,18-15.5,27-23.2
			c1.3-1.1,1.4-1.8,0.1-3c-3.7-3.4-7.4-6.9-11-10.5c-8.7-8.5-17.4-16.9-26-25.5c-1.5-1.4-2.3-1.4-3.8-0.1c-6,5.3-12,10.6-18.2,15.8
			c-9.9,8.4-19.9,16.8-29.9,25.1c-1.6,1.3-1.6,2.1-0.1,3.5c6.5,5.8,12.9,11.8,19.3,17.7c6.4,6,12.8,12.1,19.2,18.1
			C267.2,215.8,267.7,216.2,268.3,216.6z M523.3,177.7c-0.8-0.8-1.5-1.5-2.2-2.1c-4.4-3.7-8.8-7.4-13.2-11.1
			c-11.1-9.5-22.3-19-33.4-28.6c-2.2-1.9-3.6-2-5.7,0.2c-5.2,5.4-10.5,10.7-15.9,15.9c-6.5,6.3-13.1,12.6-19.7,18.8
			c-1.5,1.4-1.9,2.1-0.1,3.7c9.7,8.4,19.2,16.9,28.9,25.4c6,5.2,12.1,10.4,18,15.6c1.3,1.1,2.1,1.3,3.5-0.1c6.3-6.1,12.7-12,19-18
			c6.4-6,12.8-11.9,19.2-17.9C522.2,179,522.7,178.4,523.3,177.7z M427.9,218c13.6,0,27.3,0,40.9,0c0.7,0,1.3-0.1,2-0.2
			c-0.4-0.6-0.8-1.3-1.3-1.8c-6.9-6.1-13.8-12.3-20.7-18.4c-5.9-5.2-11.8-10.3-17.8-15.4c-5.2-4.5-5.3-4.5-10.2,0.4
			c-6.5,6.4-12.8,12.8-19.3,19.1c-4.8,4.7-9.8,9.2-14.6,13.9c-0.7,0.6-1.2,1.4-1.7,2.2c0.9,0.1,1.8,0.3,2.8,0.3
			C401.2,218,414.6,218,427.9,218z M321.9,218c13.5,0,27.1,0,40.6,0c0.8,0,1.5-0.2,2.3-0.2c-0.5-0.7-0.9-1.4-1.5-2
			c-2.3-2.2-4.7-4.4-7.1-6.7c-10.1-9.9-20.3-19.8-30.3-29.7c-1.4-1.4-2.2-1.3-3.6-0.1c-7.5,6.8-15,13.5-22.6,20.2
			c-6.5,5.7-13.1,11.3-19.6,16.9c-0.4,0.4-0.7,0.9-1.1,1.3c0.6,0.1,1.1,0.3,1.7,0.3C294.4,218,308.2,218,321.9,218z M371.4,139
			c0-0.6-0.2-1.1-0.4-1.7c-0.5,0.3-1.1,0.5-1.5,0.9c-4.8,4.2-9.5,8.5-14.2,12.7c-7.8,6.8-15.7,13.6-23.6,20.4
			c-1.6,1.4-1.5,2.2,0,3.6c4.3,3.9,8.4,7.9,12.5,11.9c8.3,8.1,16.6,16.2,24.9,24.3c0.5,0.5,1.2,0.9,1.8,1.4c0.2-0.8,0.5-1.6,0.4-2.4
			 M378.8,174.9c0,11.7,0,23.4,0,35.1c0,0.8,0.2,1.5,0.2,2.3c0.6-0.4,1.3-0.7,1.8-1.2c5.1-4.9,10.1-9.9,15.2-14.8
			c7.4-7.1,14.7-14.2,22.2-21.1c1.7-1.6,1.7-2.4-0.1-4c-5.6-4.7-11.1-9.5-16.6-14.4c-6.8-6-13.5-12-20.3-18
			c-0.6-0.5-1.4-0.9-2.1-1.3c-0.1,0.8-0.2,1.5-0.2,2.3C378.8,151.5,378.8,163.2,378.8,174.9z M219,218c12.2,0,24.5,0,36.7,0
			c0.7,0,1.3-0.2,2-0.3c-0.4-0.5-0.7-1.1-1.2-1.6c-7.6-7.2-15.1-14.4-22.8-21.6c-3.7-3.5-7.6-6.8-11.1-10.3
			c-1.5-1.5-2.5-1.3-3.9-0.1c-5.9,5.2-11.9,10.5-17.9,15.6c-6.4,5.5-12.8,10.8-19.2,16.2c-0.6,0.5-1,1.1-1.5,1.7
			c0.7,0.1,1.5,0.4,2.2,0.4C194.6,218,206.8,218,219,218z M531.4,218c12.3,0,24.7,0,37,0c0.6,0,1.1-0.2,1.7-0.3
			c-0.3-0.4-0.6-0.8-1-1.1c-7.5-6.5-15-13.1-22.5-19.6c-5.2-4.4-10.4-8.7-15.6-13.2c-1.1-1-1.9-1.2-3.1-0.1c-5,4.7-10,9.2-15,13.9
			c-6.3,6-12.6,12-18.9,18.1c-0.6,0.6-1,1.3-1.5,1.9c0.8,0.1,1.6,0.4,2.5,0.4C507.1,218,519.2,218,531.4,218z M423.6,132.3
			c-12.2,0-24.3,0-36.5,0c-0.5,0-1,0.1-1.5,0.2c0.3,0.4,0.5,0.8,0.8,1.1c12.4,10.9,24.8,21.8,37.1,32.7c1.4,1.2,2.3,1.3,3.7-0.1
			c7.2-7.2,14.4-14.2,21.7-21.3c3.8-3.7,7.6-7.2,11.4-10.9c0.4-0.4,0.8-0.9,1.1-1.4c-0.6-0.1-1.3-0.4-1.9-0.4
			C447.6,132.3,435.6,132.3,423.6,132.3z M326.3,132.3c-11.9,0-23.8,0-35.6,0c-0.7,0-1.5,0.2-2.2,0.3c0.5,0.6,0.9,1.2,1.4,1.8
			c6,5.9,11.9,11.7,17.9,17.6c4.9,4.7,9.9,9.4,14.7,14.2c1.6,1.6,2.5,1.4,4,0c6.6-6,13.3-12,20.1-17.9c5.4-4.8,11-9.4,16.5-14.1
			c0.5-0.4,0.8-0.9,1.2-1.3c-0.6-0.1-1.2-0.4-1.9-0.4C350.4,132.3,338.3,132.3,326.3,132.3z"/>
		<g id="XMLID_56_">
			<defs>
				<text id="XMLID_55_" transform="matrix(1 0 0 1 34.6469 536.8458)" class="st4 st11">DIAMONDS BY B</text>
			</defs>
			<clipPath id="XMLID_225_">
				<use xlink:href="#XMLID_55_"  style="overflow:visible;"/>
			</clipPath>
		</g>
	</g>
</g>
<g id="COPY_for_OUTLINING_TEXT">
	<g id="XMLID_139_">
		<g id="XMLID_158_">
			<path id="XMLID_184_" class="st3" d="M161.6,615.8c0.1,0,0.3,0.1,0.4,0.2l1.1,1.2c-0.8,0.9-1.8,1.7-3,2.2
				c-1.2,0.5-2.6,0.8-4.2,0.8c-1.4,0-2.7-0.2-3.9-0.7c-1.2-0.5-2.2-1.2-3-2.1c-0.8-0.9-1.5-2-1.9-3.2c-0.5-1.3-0.7-2.6-0.7-4.1
				c0-1.5,0.2-2.9,0.7-4.1c0.5-1.2,1.2-2.3,2-3.2s1.9-1.6,3.2-2.1s2.6-0.7,4.1-0.7c1.5,0,2.7,0.2,3.8,0.7c1.1,0.5,2,1.1,2.8,1.8
				l-0.9,1.2c-0.1,0.1-0.1,0.2-0.2,0.2c-0.1,0.1-0.2,0.1-0.4,0.1c-0.1,0-0.2,0-0.4-0.1c-0.1-0.1-0.3-0.2-0.5-0.3
				c-0.2-0.1-0.4-0.3-0.7-0.4c-0.3-0.1-0.5-0.3-0.9-0.4c-0.3-0.1-0.7-0.2-1.2-0.3c-0.5-0.1-1-0.1-1.6-0.1c-1.1,0-2,0.2-2.9,0.5
				c-0.9,0.4-1.6,0.9-2.3,1.6s-1.1,1.5-1.5,2.5s-0.5,2.1-0.5,3.3c0,1.2,0.2,2.3,0.5,3.3s0.8,1.8,1.5,2.5c0.6,0.7,1.3,1.2,2.2,1.5
				c0.8,0.4,1.7,0.5,2.7,0.5c0.6,0,1.1,0,1.6-0.1c0.5-0.1,0.9-0.2,1.3-0.3c0.4-0.1,0.8-0.3,1.1-0.6c0.3-0.2,0.7-0.5,1-0.8
				C161.3,615.9,161.4,615.8,161.6,615.8z"/>
			<path id="XMLID_186_" class="st3" d="M179.9,617.8c0.8,0,1.6-0.1,2.2-0.4c0.6-0.3,1.2-0.7,1.6-1.2c0.4-0.5,0.8-1.1,1-1.8
				c0.2-0.7,0.4-1.5,0.4-2.3V600h2.7v12.1c0,1.1-0.2,2.2-0.5,3.2c-0.4,1-0.9,1.8-1.6,2.5c-0.7,0.7-1.5,1.3-2.5,1.7s-2.1,0.6-3.3,0.6
				c-1.2,0-2.3-0.2-3.3-0.6c-1-0.4-1.8-1-2.5-1.7c-0.7-0.7-1.2-1.6-1.6-2.5c-0.4-1-0.5-2-0.5-3.2V600h2.7v12.1
				c0,0.8,0.1,1.6,0.4,2.3c0.2,0.7,0.6,1.3,1,1.8c0.4,0.5,1,0.9,1.7,1.2S179,617.8,179.9,617.8z"/>
			<path id="XMLID_188_" class="st3" d="M208.1,603.1c-0.1,0.1-0.2,0.2-0.3,0.3c-0.1,0.1-0.2,0.1-0.4,0.1c-0.2,0-0.3-0.1-0.5-0.2
				c-0.2-0.2-0.5-0.3-0.8-0.5c-0.3-0.2-0.7-0.4-1.2-0.5c-0.4-0.2-1-0.2-1.6-0.2c-0.6,0-1.1,0.1-1.6,0.2c-0.5,0.2-0.8,0.4-1.2,0.7
				c-0.3,0.3-0.5,0.6-0.7,1s-0.2,0.8-0.2,1.2c0,0.6,0.1,1,0.4,1.4c0.3,0.4,0.6,0.7,1.1,0.9c0.4,0.3,1,0.5,1.5,0.7
				c0.6,0.2,1.2,0.4,1.7,0.6c0.6,0.2,1.2,0.4,1.7,0.7s1.1,0.6,1.5,1c0.4,0.4,0.8,0.9,1.1,1.4s0.4,1.3,0.4,2.1c0,0.9-0.1,1.7-0.4,2.5
				s-0.7,1.4-1.3,2s-1.3,1-2.1,1.3c-0.8,0.3-1.8,0.5-2.8,0.5c-1.3,0-2.5-0.2-3.5-0.7c-1.1-0.5-2-1.1-2.7-1.9l0.8-1.3
				c0.1-0.1,0.2-0.2,0.3-0.3s0.2-0.1,0.4-0.1c0.2,0,0.4,0.1,0.7,0.3s0.6,0.4,0.9,0.7c0.4,0.3,0.8,0.5,1.4,0.7c0.5,0.2,1.2,0.3,2,0.3
				c0.6,0,1.2-0.1,1.7-0.3s0.9-0.4,1.3-0.7s0.6-0.7,0.8-1.1s0.3-0.9,0.3-1.5c0-0.6-0.1-1.1-0.4-1.5c-0.3-0.4-0.6-0.7-1.1-1
				s-1-0.5-1.5-0.7c-0.6-0.2-1.2-0.4-1.7-0.6c-0.6-0.2-1.2-0.4-1.7-0.7c-0.6-0.3-1.1-0.6-1.5-1c-0.4-0.4-0.8-0.9-1.1-1.5
				s-0.4-1.3-0.4-2.2c0-0.7,0.1-1.4,0.4-2s0.7-1.2,1.2-1.7s1.2-0.9,1.9-1.2c0.8-0.3,1.6-0.5,2.6-0.5c1.1,0,2.1,0.2,3,0.5
				c0.9,0.4,1.7,0.9,2.4,1.5L208.1,603.1z"/>
			<path id="XMLID_190_" class="st3" d="M231.8,600v2.3h-6.4v17.6h-2.7v-17.6h-6.5V600H231.8z"/>
			<path id="XMLID_192_" class="st3" d="M258.6,610c0,1.5-0.2,2.9-0.7,4.1c-0.5,1.2-1.1,2.3-2,3.2s-1.9,1.6-3.1,2.1s-2.5,0.7-4,0.7
				c-1.5,0-2.8-0.2-4-0.7s-2.2-1.2-3.1-2.1s-1.5-2-2-3.2c-0.5-1.2-0.7-2.6-0.7-4.1s0.2-2.9,0.7-4.1s1.1-2.3,2-3.2s1.9-1.6,3.1-2.1
				s2.5-0.8,4-0.8c1.5,0,2.8,0.3,4,0.8s2.2,1.2,3.1,2.1s1.5,2,2,3.2C258.4,607.1,258.6,608.5,258.6,610z M255.9,610
				c0-1.2-0.2-2.3-0.5-3.3c-0.3-1-0.8-1.8-1.4-2.5s-1.4-1.2-2.2-1.5c-0.9-0.4-1.8-0.5-2.9-0.5c-1.1,0-2,0.2-2.9,0.5
				c-0.9,0.4-1.6,0.9-2.2,1.5c-0.6,0.7-1.1,1.5-1.4,2.5c-0.3,1-0.5,2.1-0.5,3.3s0.2,2.3,0.5,3.3c0.3,1,0.8,1.8,1.4,2.5
				c0.6,0.7,1.4,1.2,2.2,1.5c0.9,0.4,1.8,0.5,2.9,0.5c1.1,0,2-0.2,2.9-0.5c0.9-0.4,1.6-0.9,2.2-1.5s1.1-1.5,1.4-2.5
				C255.7,612.3,255.9,611.2,255.9,610z"/>
			<path id="XMLID_195_" class="st3" d="M278,613.4c0.1,0.2,0.2,0.5,0.3,0.7c0.1-0.3,0.2-0.5,0.3-0.7c0.1-0.2,0.2-0.5,0.3-0.7
				l6.7-12.2c0.1-0.2,0.2-0.3,0.4-0.4c0.1,0,0.3-0.1,0.6-0.1h2v19.9h-2.4v-14.6c0-0.2,0-0.4,0-0.6c0-0.2,0-0.4,0-0.7l-6.8,12.4
				c-0.2,0.4-0.6,0.6-1,0.6h-0.4c-0.4,0-0.7-0.2-1-0.6l-7-12.5c0,0.2,0,0.5,0.1,0.7c0,0.2,0,0.4,0,0.6v14.6h-2.4V600h2
				c0.2,0,0.4,0,0.6,0.1c0.1,0,0.3,0.2,0.4,0.4l6.9,12.2C277.8,613,277.9,613.2,278,613.4z"/>
			<path id="XMLID_197_" class="st3" d="M322.1,600v2.2h-9.6v7h8.2v2.2h-8.2v8.6h-2.7V600H322.1z"/>
			<path id="XMLID_199_" class="st3" d="M334.3,619.9h-2.7V600h2.7V619.9z"/>
			<path id="XMLID_201_" class="st3" d="M347.2,600.1c0.1,0.1,0.2,0.2,0.4,0.4l11.5,15c0-0.2,0-0.5-0.1-0.7c0-0.2,0-0.4,0-0.7V600
				h2.4v19.9H360c-0.2,0-0.4,0-0.5-0.1c-0.1-0.1-0.3-0.2-0.4-0.4l-11.5-15c0,0.2,0,0.5,0,0.7s0,0.4,0,0.6v14.2h-2.4V600h1.4
				C346.9,600,347,600.1,347.2,600.1z"/>
			<path id="XMLID_203_" class="st3" d="M384,600v2.2h-9.6v6.6h7.7v2.1h-7.7v6.8h9.6v2.2h-12.3V600H384z"/>
			<path id="XMLID_205_" class="st3" d="M411.9,613.1c0,1.1-0.1,2.1-0.4,3c-0.3,0.9-0.7,1.6-1.2,2.2s-1.2,1.1-2,1.4
				s-1.7,0.5-2.7,0.5c-0.9,0-1.8-0.1-2.8-0.4c0-0.3,0-0.5,0.1-0.8c0-0.3,0.1-0.5,0.1-0.8c0-0.2,0.1-0.3,0.2-0.4
				c0.1-0.1,0.2-0.1,0.4-0.1c0.2,0,0.4,0,0.7,0.1c0.3,0.1,0.6,0.1,1.1,0.1c0.6,0,1.2-0.1,1.6-0.3c0.5-0.2,0.9-0.5,1.2-0.9
				c0.3-0.4,0.6-0.9,0.8-1.5c0.2-0.6,0.3-1.3,0.3-2.2V600h2.7V613.1z"/>
			<path id="XMLID_207_" class="st3" d="M434.5,600v2.2H425v6.6h7.7v2.1H425v6.8h9.6v2.2h-12.3V600H434.5z"/>
			<path id="XMLID_209_" class="st3" d="M441.7,600h2.2c0.2,0,0.4,0.1,0.6,0.2c0.2,0.1,0.3,0.3,0.3,0.5l4.1,13.8
				c0.1,0.3,0.1,0.5,0.2,0.8c0.1,0.3,0.1,0.6,0.2,0.9c0.1-0.3,0.1-0.6,0.2-0.9c0.1-0.3,0.1-0.6,0.2-0.8l4.7-13.8
				c0.1-0.2,0.2-0.3,0.3-0.4c0.2-0.1,0.4-0.2,0.6-0.2h0.8c0.2,0,0.4,0.1,0.6,0.2c0.2,0.1,0.3,0.3,0.3,0.5l4.7,13.8
				c0.2,0.5,0.3,1,0.4,1.7c0.1-0.3,0.1-0.6,0.2-0.9s0.1-0.5,0.2-0.8l4.1-13.8c0-0.2,0.2-0.3,0.3-0.4c0.2-0.1,0.4-0.2,0.6-0.2h2.1
				l-6.2,19.9H461l-5-15.2c-0.1-0.3-0.2-0.6-0.3-1c0,0.2-0.1,0.4-0.1,0.5c0,0.2-0.1,0.3-0.1,0.5l-5.1,15.2h-2.4L441.7,600z"/>
			<path id="XMLID_211_" class="st3" d="M490.1,600v2.2h-9.6v6.6h7.7v2.1h-7.7v6.8h9.6v2.2h-12.3V600H490.1z"/>
			<path id="XMLID_213_" class="st3" d="M502.2,617.7h8.6v2.3h-11.3V600h2.7V617.7z"/>
			<path id="XMLID_215_" class="st3" d="M522,617.7h8.6v2.3h-11.3V600h2.7V617.7z"/>
			<path id="XMLID_217_" class="st3" d="M551.4,600v2.2h-9.6v6.6h7.7v2.1h-7.7v6.8h9.6v2.2h-12.3V600H551.4z"/>
			<path id="XMLID_219_" class="st3" d="M563.8,611.6v8.3h-2.7V600h5.6c1.3,0,2.3,0.1,3.3,0.4c0.9,0.3,1.7,0.6,2.3,1.1
				c0.6,0.5,1,1.1,1.3,1.7c0.3,0.7,0.4,1.4,0.4,2.3c0,0.7-0.1,1.4-0.3,2c-0.2,0.6-0.5,1.2-1,1.6c-0.4,0.5-0.9,0.9-1.5,1.2
				c-0.6,0.3-1.3,0.6-2.1,0.8c0.3,0.2,0.6,0.5,0.9,0.8l5.8,7.9h-2.4c-0.5,0-0.9-0.2-1.1-0.6l-5.2-7.1c-0.2-0.2-0.3-0.4-0.5-0.5
				c-0.2-0.1-0.5-0.1-0.8-0.1H563.8z M563.8,609.7h2.8c0.8,0,1.5-0.1,2.1-0.3c0.6-0.2,1.1-0.5,1.5-0.8c0.4-0.3,0.7-0.8,0.9-1.2
				c0.2-0.5,0.3-1,0.3-1.6c0-1.2-0.4-2.1-1.2-2.7c-0.8-0.6-1.9-0.9-3.5-0.9h-2.9V609.7z"/>
			<path id="XMLID_222_" class="st3" d="M591.9,612v7.9h-2.7V612l-7.3-12h2.4c0.2,0,0.4,0.1,0.6,0.2s0.3,0.3,0.4,0.4l4.6,7.7
				c0.2,0.3,0.3,0.6,0.5,0.9c0.1,0.3,0.2,0.6,0.3,0.8c0.1-0.3,0.2-0.6,0.3-0.9c0.1-0.3,0.3-0.6,0.5-0.9l4.5-7.7
				c0.1-0.1,0.2-0.3,0.3-0.4c0.1-0.1,0.3-0.2,0.6-0.2h2.4L591.9,612z"/>
		</g>
		<path id="XMLID_142_" class="st8" d="M472.8,125c9,7.6,18.1,15.1,27.1,22.7c19.4,16.4,38.8,32.8,58.1,49.3
			c8.2,7,16.4,14.1,24.5,21.2c3,2.6,3,4.4,0.1,7.2c-6.3,6-12.6,11.9-18.8,17.9c-8.6,8.3-17.1,16.7-25.8,25
			c-8.5,8.2-17.2,16.2-25.7,24.3c-14.6,14-29.2,28.1-43.8,42.1c-12.7,12.2-25.3,24.3-38,36.5c-7.4,7.1-15,13.9-22.3,21
			c-8.8,8.5-17.5,17-26.3,25.5c-1.2,1.2-2.5,2.2-3.7,3.4c-2.4,2.2-4,2.2-6.3,0c-6.9-6.5-13.9-13.1-20.8-19.7
			c-13.8-13.2-27.5-26.4-41.2-39.6c-5.1-4.9-10.4-9.7-15.5-14.6c-14.5-13.9-29-27.8-43.5-41.8c-12.8-12.3-25.7-24.7-38.5-37
			c-7-6.7-14.2-13.3-21.2-20c-8.7-8.4-17.4-16.9-26.1-25.4c0-1.1,0-2.1,0-3.2c9.3-7.9,18.5-15.9,27.8-23.8
			c4.2-3.6,8.6-7.2,12.8-10.8c14.6-12.5,29.2-25,43.8-37.4c9.1-7.7,18.3-15.4,27.4-23.1C342.3,125,407.5,125,472.8,125z
			 M359.4,399.1c0,0.1,0,0.2,0.1,0.2c0,0,0.1,0,0.2,0C359.6,399.2,359.5,399.1,359.4,399.1c-0.2-0.4-0.3-0.8-0.4-1.1
			c-0.8-1.7-1.4-3.4-2.3-5c-8.9-16.6-17.9-33.2-26.9-49.8c-8.9-16.4-17.8-32.9-26.7-49.3c-12-22-24-44-35.9-66.1
			c-0.8-1.5-1.8-2.1-3.5-2.1c-27.6,0-55.1,0-82.7,0c-0.6,0-1.3,0.2-1.9,0.3c0.4,0.5,0.7,1.1,1.2,1.6c7.8,7.6,15.6,15.3,23.5,22.8
			c9.2,8.8,18.4,17.4,27.6,26.1c7.8,7.4,15.4,15,23.1,22.4c8.2,7.9,16.6,15.6,24.8,23.4c8.3,7.9,16.4,15.9,24.7,23.8
			c13.9,13.3,27.9,26.5,41.9,39.7c4.3,4.1,8.5,8.2,12.8,12.3C358.9,398.5,359.2,398.8,359.4,399.1z M391,398.6
			c2.4-2.4,4.8-4.8,7.3-7.1c10.1-9.6,20.3-19.2,30.4-28.9c7.6-7.3,15.1-14.8,22.7-22.1c8.8-8.5,17.8-16.8,26.7-25.2
			c7.4-7.1,14.6-14.3,22-21.3c15.5-14.8,31.1-29.4,46.7-44.2c7.5-7.2,14.9-14.5,22.4-21.7c0.6-0.6,1.1-1.4,1.7-2.1
			c-0.8-0.1-1.7-0.4-2.5-0.4c-27.3,0-54.6,0-81.9-0.1c-1.8,0-2.8,0.5-3.7,2.2c-4,7.7-8.1,15.3-12.2,22.9c-8.5,15.7-17,31.3-25.5,47
			c-8.8,16.3-17.6,32.6-26.4,48.9c-6.2,11.4-12.5,22.6-18.7,34c-3.2,5.9-6.1,11.9-9.2,17.9c0,0.2-0.1,0.3-0.1,0.5
			C390.8,398.8,390.9,398.7,391,398.6z M378.8,314.8c0,28.6,0,57.2,0,85.8c0,0.9,0.2,1.8,0.3,2.7c0.5-0.7,1.1-1.3,1.5-2.1
			c1.9-3.6,3.7-7.3,5.7-10.9c8.8-16.3,17.6-32.6,26.5-48.9c13.5-24.9,27.1-49.7,40.6-74.6c7-12.9,13.9-25.9,20.9-38.8
			c1.5-2.8,1.6-2.8-1.7-2.8c-21.4,0.1-42.8,0.2-64.3,0.3c-8.7,0-17.5,0.1-26.2-0.1c-2.7-0.1-3.3,0.8-3.3,3.4
			C378.8,257.6,378.8,286.2,378.8,314.8z M371.1,314.8c0-28.7,0-57.4,0.1-86.1c0-2.4-0.7-3.1-3.1-3.1c-14.7,0-29.4-0.2-44.1-0.2
			c-15.8-0.1-31.7,0-47.5,0c-1.5,0-2.3,0-1.3,1.9c4.5,8.1,8.7,16.3,13.1,24.5c8.3,15.4,16.7,30.7,25,46.1
			c8.7,16.1,17.4,32.3,26.1,48.4c10,18.4,20,36.9,30,55.3c0.3,0.5,0.9,0.9,1.3,1.4c0.1-0.6,0.2-1.2,0.3-1.7c0-0.5,0-1,0-1.6
			C371.1,371.3,371.1,343.1,371.1,314.8z M268.3,216.6c0.6-0.5,1.2-0.8,1.7-1.3c6.7-5.9,13.4-12,20.2-17.9c9-7.8,18-15.5,27-23.2
			c1.3-1.1,1.4-1.8,0.1-3c-3.7-3.4-7.4-6.9-11-10.5c-8.7-8.5-17.4-16.9-26-25.5c-1.5-1.4-2.3-1.4-3.8-0.1c-6,5.3-12,10.6-18.2,15.8
			c-9.9,8.4-19.9,16.8-29.9,25.1c-1.6,1.3-1.6,2.1-0.1,3.5c6.5,5.8,12.9,11.8,19.3,17.7c6.4,6,12.8,12.1,19.2,18.1
			C267.2,215.8,267.7,216.2,268.3,216.6z M523.3,177.7c-0.8-0.8-1.5-1.5-2.2-2.1c-4.4-3.7-8.8-7.4-13.2-11.1
			c-11.1-9.5-22.3-19-33.4-28.6c-2.2-1.9-3.6-2-5.7,0.2c-5.2,5.4-10.5,10.7-15.9,15.9c-6.5,6.3-13.1,12.6-19.7,18.8
			c-1.5,1.4-1.9,2.1-0.1,3.7c9.7,8.4,19.2,16.9,28.9,25.4c6,5.2,12.1,10.4,18,15.6c1.3,1.1,2.1,1.3,3.5-0.1c6.3-6.1,12.7-12,19-18
			c6.4-6,12.8-11.9,19.2-17.9C522.2,179,522.7,178.4,523.3,177.7z M427.9,218c13.6,0,27.3,0,40.9,0c0.7,0,1.3-0.1,2-0.2
			c-0.4-0.6-0.8-1.3-1.3-1.8c-6.9-6.1-13.8-12.3-20.7-18.4c-5.9-5.2-11.8-10.3-17.8-15.4c-5.2-4.5-5.3-4.5-10.2,0.4
			c-6.5,6.4-12.8,12.8-19.3,19.1c-4.8,4.7-9.8,9.2-14.6,13.9c-0.7,0.6-1.2,1.4-1.7,2.2c0.9,0.1,1.8,0.3,2.8,0.3
			C401.2,218,414.6,218,427.9,218z M321.9,218c13.5,0,27.1,0,40.6,0c0.8,0,1.5-0.2,2.3-0.2c-0.5-0.7-0.9-1.4-1.5-2
			c-2.3-2.2-4.7-4.4-7.1-6.7c-10.1-9.9-20.3-19.8-30.3-29.7c-1.4-1.4-2.2-1.3-3.6-0.1c-7.5,6.8-15,13.5-22.6,20.2
			c-6.5,5.7-13.1,11.3-19.6,16.9c-0.4,0.4-0.7,0.9-1.1,1.3c0.6,0.1,1.1,0.3,1.7,0.3C294.4,218,308.2,218,321.9,218z M371.4,139
			c0-0.6-0.2-1.1-0.4-1.7c-0.5,0.3-1.1,0.5-1.5,0.9c-4.8,4.2-9.5,8.5-14.2,12.7c-7.8,6.8-15.7,13.6-23.6,20.4
			c-1.6,1.4-1.5,2.2,0,3.6c4.3,3.9,8.4,7.9,12.5,11.9c8.3,8.1,16.6,16.2,24.9,24.3c0.5,0.5,1.2,0.9,1.8,1.4c0.2-0.8,0.5-1.6,0.4-2.4
			 M378.8,174.9c0,11.7,0,23.4,0,35.1c0,0.8,0.2,1.5,0.2,2.3c0.6-0.4,1.3-0.7,1.8-1.2c5.1-4.9,10.1-9.9,15.2-14.8
			c7.4-7.1,14.7-14.2,22.2-21.1c1.7-1.6,1.7-2.4-0.1-4c-5.6-4.7-11.1-9.5-16.6-14.4c-6.8-6-13.5-12-20.3-18
			c-0.6-0.5-1.4-0.9-2.1-1.3c-0.1,0.8-0.2,1.5-0.2,2.3C378.8,151.5,378.8,163.2,378.8,174.9z M219,218c12.2,0,24.5,0,36.7,0
			c0.7,0,1.3-0.2,2-0.3c-0.4-0.5-0.7-1.1-1.2-1.6c-7.6-7.2-15.1-14.4-22.8-21.6c-3.7-3.5-7.6-6.8-11.1-10.3
			c-1.5-1.5-2.5-1.3-3.9-0.1c-5.9,5.2-11.9,10.5-17.9,15.6c-6.4,5.5-12.8,10.8-19.2,16.2c-0.6,0.5-1,1.1-1.5,1.7
			c0.7,0.1,1.5,0.4,2.2,0.4C194.6,218,206.8,218,219,218z M531.4,218c12.3,0,24.7,0,37,0c0.6,0,1.1-0.2,1.7-0.3
			c-0.3-0.4-0.6-0.8-1-1.1c-7.5-6.5-15-13.1-22.5-19.6c-5.2-4.4-10.4-8.7-15.6-13.2c-1.1-1-1.9-1.2-3.1-0.1c-5,4.7-10,9.2-15,13.9
			c-6.3,6-12.6,12-18.9,18.1c-0.6,0.6-1,1.3-1.5,1.9c0.8,0.1,1.6,0.4,2.5,0.4C507.1,218,519.2,218,531.4,218z M423.6,132.3
			c-12.2,0-24.3,0-36.5,0c-0.5,0-1,0.1-1.5,0.2c0.3,0.4,0.5,0.8,0.8,1.1c12.4,10.9,24.8,21.8,37.1,32.7c1.4,1.2,2.3,1.3,3.7-0.1
			c7.2-7.2,14.4-14.2,21.7-21.3c3.8-3.7,7.6-7.2,11.4-10.9c0.4-0.4,0.8-0.9,1.1-1.4c-0.6-0.1-1.3-0.4-1.9-0.4
			C447.6,132.3,435.6,132.3,423.6,132.3z M326.3,132.3c-11.9,0-23.8,0-35.6,0c-0.7,0-1.5,0.2-2.2,0.3c0.5,0.6,0.9,1.2,1.4,1.8
			c6,5.9,11.9,11.7,17.9,17.6c4.9,4.7,9.9,9.4,14.7,14.2c1.6,1.6,2.5,1.4,4,0c6.6-6,13.3-12,20.1-17.9c5.4-4.8,11-9.4,16.5-14.1
			c0.5-0.4,0.8-0.9,1.2-1.3c-0.6-0.1-1.2-0.4-1.9-0.4C350.4,132.3,338.3,132.3,326.3,132.3z"/>
		<g id="XMLID_140_">
			<defs>
				<path id="XMLID_141_" d="M62.8,473.5c10.7,0,18.6,2.7,23.8,8c5.2,5.3,7.8,13,7.8,23c0,6.5-1.3,12.2-3.8,17
					c-2.5,4.9-6.2,8.6-11,11.3s-10.7,4-17.5,4c-1.3,0-3.3,0-5.8-0.1c-2.6-0.1-4.8-0.1-6.7-0.1c-2.1,0-4.1,0-6.2,0
					c-2,0-3.7,0.1-4.9,0.2v-1.8c2-0.1,3.6-0.4,4.6-0.7c1-0.4,1.7-1.1,2.1-2.1c0.4-1.1,0.5-2.7,0.5-4.8V483c0-2.2-0.2-3.8-0.5-4.9
					c-0.4-1-1.1-1.8-2.1-2.1c-1-0.4-2.6-0.6-4.6-0.7v-1.8c1.3,0.1,2.9,0.1,4.9,0.2c2,0.1,4,0.1,6,0c2.1-0.1,4.4-0.1,7.1-0.2
					C59,473.5,61.2,473.5,62.8,473.5z M60.6,475.1c-2.7,0-4.5,0.5-5.4,1.5c-0.8,1-1.3,3.1-1.3,6.2v44.7c0,3.1,0.4,5.2,1.3,6.2
					c0.9,1,2.7,1.5,5.4,1.5c6.5,0,11.5-1.2,15.1-3.5c3.6-2.4,6.1-5.8,7.5-10.3s2.1-10.1,2.1-16.6c0-10-1.8-17.5-5.5-22.4
					C76.3,477.6,69.8,475.1,60.6,475.1z M125.9,473.5v1.8c-2,0.1-3.6,0.3-4.6,0.7c-1,0.4-1.7,1.1-2.1,2.1c-0.4,1-0.5,2.7-0.5,4.9
					v44.4c0,2.1,0.2,3.8,0.5,4.8c0.4,1.1,1.1,1.8,2.1,2.1c1,0.4,2.6,0.6,4.6,0.7v1.8c-1.4-0.1-3.1-0.2-5.1-0.2c-2.1,0-4.1,0-6.2,0
					c-2.3,0-4.5,0-6.5,0c-2,0-3.7,0.1-4.9,0.2v-1.8c2-0.1,3.6-0.4,4.6-0.7c1-0.4,1.7-1.1,2.1-2.1c0.4-1.1,0.5-2.7,0.5-4.8V483
					c0-2.2-0.2-3.8-0.5-4.9c-0.4-1-1.1-1.8-2.1-2.1c-1-0.4-2.6-0.6-4.6-0.7v-1.8c1.3,0.1,2.9,0.1,4.9,0.2c2,0.1,4.2,0.1,6.5,0.1
					c2.1,0,4.2,0,6.2-0.1C122.8,473.6,124.5,473.6,125.9,473.5z M158.6,473.1l21.8,56.3c0.9,2.3,1.9,3.8,3,4.5
					c1.1,0.7,2.2,1.1,3.1,1.2v1.8c-1.2-0.1-2.7-0.2-4.4-0.2c-1.7,0-3.5,0-5.2,0c-2.3,0-4.5,0-6.5,0c-2,0-3.7,0.1-4.9,0.2v-1.8
					c3-0.1,5-0.6,5.8-1.6c0.8-0.9,0.7-2.9-0.5-6l-16.6-44.5l1.4-1.2L140,522.4c-1.3,3.2-1.8,5.7-1.8,7.6c0.1,1.8,0.7,3.1,2.1,3.9
					c1.3,0.8,3.2,1.2,5.7,1.3v1.8c-1.7-0.1-3.4-0.2-5.2-0.2c-1.8,0-3.5,0-5.1,0c-1.5,0-2.8,0-3.8,0c-1,0-2,0.1-2.9,0.2v-1.8
					c1.2-0.3,2.4-1,3.7-2.1c1.3-1.1,2.4-3,3.4-5.7l21-54.2c0.2,0,0.5,0,0.7,0C158.1,473.1,158.3,473.1,158.6,473.1z M169.5,511.1
					v1.8h-26.7l0.9-1.8H169.5z M260.2,473.5v1.8c-2,0.1-3.6,0.3-4.6,0.7c-1,0.4-1.7,1.1-2.1,2.1c-0.4,1-0.5,2.7-0.5,4.9v44.4
					c0,2.1,0.2,3.8,0.5,4.8c0.4,1.1,1.1,1.8,2.1,2.1c1,0.4,2.6,0.6,4.6,0.7v1.8c-1.4-0.1-3.1-0.2-5.1-0.2c-2.1,0-4.1,0-6.2,0
					c-2.3,0-4.5,0-6.5,0c-2,0-3.7,0.1-4.9,0.2v-1.8c2-0.1,3.6-0.4,4.6-0.7c1-0.4,1.7-1.1,2.1-2.1c0.4-1.1,0.5-2.7,0.5-4.8v-49.2
					l0.4,0.3l-21.9,58.9h-1.4l-22.5-58.1v47.2c0,2.1,0.2,3.8,0.6,5.1c0.4,1.2,1.2,2.1,2.3,2.6s2.9,0.8,5.2,0.9v1.8
					c-1.1-0.1-2.5-0.2-4.2-0.2c-1.7,0-3.4,0-4.9,0c-1.5,0-3,0-4.5,0c-1.5,0-2.8,0.1-3.8,0.2v-1.8c2-0.1,3.6-0.4,4.6-0.9
					c1-0.5,1.7-1.4,2.1-2.6s0.5-2.9,0.5-5.1V483c0-2.2-0.2-3.8-0.5-4.9c-0.4-1-1.1-1.8-2.1-2.1c-1-0.4-2.6-0.6-4.6-0.7v-1.8
					c1,0.1,2.3,0.1,3.8,0.2c1.5,0.1,3,0.1,4.5,0.1c1.3,0,2.7,0,4.1-0.1c1.4-0.1,2.6-0.1,3.5-0.2L226,527l-1.5,0.7l20.1-54
					c0.7,0,1.4,0,2.1,0c0.7,0,1.4,0,2.1,0c2.1,0,4.2,0,6.2-0.1C257.1,473.6,258.8,473.6,260.2,473.5z M297.2,472.2
					c5.7,0,10.6,1.3,14.9,3.8c4.3,2.6,7.6,6.2,9.9,11c2.4,4.8,3.5,10.6,3.5,17.5c0,6.7-1.2,12.5-3.6,17.5c-2.4,5-5.8,8.9-10.1,11.7
					c-4.3,2.8-9.2,4.2-14.8,4.2c-5.7,0-10.6-1.3-14.9-3.8c-4.3-2.6-7.6-6.3-9.9-11.1c-2.4-4.8-3.5-10.6-3.5-17.4
					c0-6.7,1.2-12.5,3.7-17.5c2.4-5,5.8-8.9,10.1-11.7C286.7,473.6,291.6,472.2,297.2,472.2z M296.8,473.9c-3.9,0-7.2,1.3-10.1,4
					c-2.9,2.7-5.1,6.4-6.7,11.1c-1.6,4.7-2.4,10.2-2.4,16.4c0,6.3,0.9,11.8,2.6,16.5c1.8,4.7,4.1,8.3,7.2,10.8c3,2.5,6.3,3.8,10,3.8
					c3.9,0,7.2-1.3,10.1-4c2.9-2.7,5.1-6.4,6.7-11.1c1.6-4.7,2.4-10.2,2.4-16.3c0-6.4-0.9-11.9-2.6-16.6c-1.8-4.7-4.1-8.2-7.1-10.8
					C303.8,475.1,300.5,473.9,296.8,473.9z M390.2,473.5v1.8c-2,0.1-3.6,0.4-4.6,0.9c-1,0.5-1.7,1.4-2.1,2.6
					c-0.4,1.2-0.5,2.9-0.5,5.1v53.4c-0.4,0-0.7,0-1,0c-0.3,0-0.7,0-1,0l-37.6-58.1v47.2c0,2.1,0.2,3.8,0.6,5.1
					c0.4,1.2,1.2,2.1,2.3,2.6s2.9,0.8,5.2,0.9v1.8c-1.1-0.1-2.5-0.2-4.2-0.2c-1.7,0-3.4,0-4.9,0c-1.5,0-3,0-4.5,0
					c-1.5,0-2.8,0.1-3.8,0.2v-1.8c2-0.1,3.6-0.4,4.6-0.9c1-0.5,1.7-1.4,2.1-2.6s0.5-2.9,0.5-5.1V483c0-2.2-0.2-3.8-0.5-4.9
					c-0.4-1-1.1-1.8-2.1-2.1c-1-0.4-2.6-0.6-4.6-0.7v-1.8c1,0.1,2.3,0.1,3.8,0.2c1.5,0.1,3,0.1,4.5,0.1c1.3,0,2.6,0,3.8-0.1
					c1.2-0.1,2.3-0.1,3.2-0.2l31.6,48.7v-38.3c0-2.2-0.2-3.9-0.6-5.1c-0.4-1.2-1.2-2.1-2.3-2.6c-1.2-0.5-2.9-0.8-5.2-0.9v-1.8
					c1.1,0.1,2.5,0.1,4.3,0.2c1.8,0.1,3.4,0.1,4.9,0.1c1.6,0,3.1,0,4.6-0.1C388,473.6,389.3,473.6,390.2,473.5z M421.6,473.5
					c10.7,0,18.6,2.7,23.8,8c5.2,5.3,7.8,13,7.8,23c0,6.5-1.3,12.2-3.8,17c-2.5,4.9-6.2,8.6-11,11.3c-4.8,2.7-10.7,4-17.5,4
					c-1.3,0-3.3,0-5.8-0.1c-2.6-0.1-4.8-0.1-6.7-0.1c-2.1,0-4.1,0-6.2,0c-2,0-3.7,0.1-4.9,0.2v-1.8c2-0.1,3.6-0.4,4.6-0.7
					c1-0.4,1.7-1.1,2.1-2.1c0.4-1.1,0.5-2.7,0.5-4.8V483c0-2.2-0.2-3.8-0.5-4.9c-0.4-1-1.1-1.8-2.1-2.1c-1-0.4-2.6-0.6-4.6-0.7v-1.8
					c1.3,0.1,2.9,0.1,4.9,0.2c2,0.1,4,0.1,6,0c2.1-0.1,4.4-0.1,7.1-0.2C417.8,473.5,419.9,473.5,421.6,473.5z M419.4,475.1
					c-2.7,0-4.5,0.5-5.4,1.5c-0.8,1-1.3,3.1-1.3,6.2v44.7c0,3.1,0.4,5.2,1.3,6.2c0.9,1,2.7,1.5,5.4,1.5c6.5,0,11.5-1.2,15.1-3.5
					c3.6-2.4,6.1-5.8,7.5-10.3s2.1-10.1,2.1-16.6c0-10-1.8-17.5-5.5-22.4C435.1,477.6,428.6,475.1,419.4,475.1z M481,472.5
					c3,0,5.2,0.3,6.8,1c1.6,0.7,2.9,1.4,4.1,2.3c0.7,0.4,1.3,0.7,1.7,0.9c0.4,0.2,0.9,0.3,1.3,0.3c1,0,1.6-1.3,2-3.9h2.1
					c-0.1,1-0.1,2.2-0.2,3.6c-0.1,1.4-0.1,3.3-0.2,5.5c0,2.3,0,5.3,0,9.1h-2.1c-0.2-2.9-0.8-5.6-1.9-8.2c-1.1-2.6-2.6-4.8-4.7-6.4
					c-2.1-1.7-4.8-2.5-8.1-2.5c-3.2,0-5.8,1-7.8,2.9c-2.1,1.9-3.1,4.4-3.1,7.5c0,2.7,0.7,4.9,2.1,6.8c1.4,1.8,3.2,3.5,5.5,4.9
					c2.3,1.5,4.8,3,7.5,4.7c3.1,1.9,5.9,3.8,8.3,5.7s4.3,4,5.7,6.2c1.4,2.3,2.1,5,2.1,8.2c0,3.8-0.9,7-2.6,9.5
					c-1.7,2.5-4,4.4-6.9,5.6c-2.9,1.3-6,1.9-9.5,1.9c-3.2,0-5.7-0.4-7.5-1.1c-1.8-0.7-3.4-1.5-4.7-2.2c-1.3-0.8-2.3-1.3-3-1.3
					c-1,0-1.6,1.3-2,3.9h-2.1c0.1-1.3,0.2-2.7,0.2-4.4c0-1.7,0.1-3.9,0.1-6.7c0-2.7,0-6.2,0-10.4h2.1c0.2,3.6,0.9,6.9,2,10
					c1.1,3.1,2.8,5.6,5.1,7.5c2.3,1.9,5.4,2.8,9.2,2.8c2.9,0,5.6-0.9,8-2.8s3.6-4.9,3.6-9.1c0-3.6-1.3-6.7-3.8-9
					c-2.6-2.4-5.9-4.8-10.1-7.3c-2.8-1.7-5.4-3.5-7.9-5.3c-2.4-1.8-4.4-3.9-5.9-6.2c-1.5-2.4-2.2-5.2-2.2-8.5c0-3.5,0.8-6.4,2.4-8.7
					c1.6-2.3,3.7-4,6.2-5.1C475.4,473.1,478.1,472.5,481,472.5z M532.5,473.5c1.3,0.1,2.9,0.1,4.9,0.2c2,0.1,4,0.1,6,0.1
					c2.8,0,5.5,0,8.1-0.1c2.6-0.1,4.4-0.1,5.5-0.1c6.3,0,11,1.3,14.1,3.9c3.2,2.6,4.7,6,4.7,10.1c0,2.1-0.4,4.1-1.3,6.1
					c-0.9,2-2.3,3.8-4.3,5.5c-2,1.6-4.7,3-8,4v0.2c4.7,0.6,8.4,1.7,11.1,3.4c2.7,1.6,4.5,3.6,5.6,5.8c1.1,2.2,1.6,4.5,1.6,7
					c0,5.1-1.9,9.2-5.7,12.5c-3.8,3.3-9.1,4.9-15.8,4.9c-1.3,0-3.3,0-5.9-0.1c-2.6-0.1-5.8-0.1-9.5-0.1c-2.1,0-4.1,0-6.2,0
					c-2,0-3.7,0.1-4.9,0.2v-1.8c2-0.1,3.6-0.4,4.6-0.7c1-0.4,1.7-1.1,2.1-2.1c0.4-1.1,0.5-2.7,0.5-4.8V483c0-2.2-0.2-3.8-0.5-4.9
					c-0.4-1-1.1-1.8-2.1-2.1c-1-0.4-2.6-0.6-4.6-0.7V473.5z M554.7,475.3c-2.7,0-4.5,0.5-5.4,1.5c-0.8,1-1.3,3.1-1.3,6.2v44.4
					c0,3.1,0.4,5.1,1.3,6c0.9,0.9,2.7,1.4,5.4,1.4c5.8,0,10.1-1.4,12.8-4.1c2.7-2.7,4-6.6,4-11.6c0-4.6-1.2-8.1-3.7-10.6
					c-2.5-2.5-6.5-3.8-12.2-3.8h-9.2v-1.5h7.7c3.5,0,6.2-0.7,8.1-2c1.9-1.3,3.2-3.1,3.9-5.4c0.7-2.2,1.1-4.6,1.1-7.2
					c0-4.4-1-7.7-2.9-10C562.3,476.4,559.1,475.3,554.7,475.3z M637.1,473.5v1.8c-1.1,0.2-2.3,1-3.4,2.2c-1.1,1.2-2.4,3.1-3.8,5.8
					L611.8,519h-1.5l-20.9-38.7c-1.2-2.2-2.2-3.6-3-4.2c-0.8-0.6-1.5-0.9-2.2-0.9v-1.9c1.2,0.1,2.4,0.1,3.7,0.2
					c1.3,0.1,2.7,0.1,4.2,0.1c2,0,4.1,0,6.3,0c2.2,0,4.3-0.1,6.2-0.2v1.9c-1.5,0-2.8,0.2-3.9,0.5c-1.1,0.4-1.9,1-2.2,2
					c-0.4,1-0.1,2.3,0.8,4l15.1,29l-0.7,0.5l11.9-23.7c1.7-3.3,2.5-5.8,2.5-7.6c0-1.8-0.7-3-2.1-3.7c-1.4-0.7-3.3-1.1-5.8-1.1v-1.8
					c1.7,0.1,3.5,0.1,5.3,0.2c1.8,0.1,3.5,0.1,5,0.1c1.5,0,2.8,0,3.8-0.1C635.2,473.6,636.2,473.6,637.1,473.5z M615.9,509.6v17.7
					c0,2.1,0.2,3.8,0.5,4.8c0.4,1.1,1.1,1.8,2.1,2.1c1,0.4,2.6,0.6,4.6,0.7v1.8c-1.4-0.1-3.1-0.2-5.1-0.2c-2.1,0-4.1,0-6.2,0
					c-2.3,0-4.5,0-6.5,0c-2,0-3.7,0.1-4.9,0.2v-1.8c2-0.1,3.6-0.4,4.6-0.7c1-0.4,1.7-1.1,2.1-2.1c0.4-1.1,0.5-2.7,0.5-4.8V509
					l4.8,5.5L615.9,509.6z M663.4,473.5c1.3,0.1,2.9,0.1,4.9,0.2c2,0.1,4,0.1,6,0.1c2.8,0,5.5,0,8.1-0.1c2.6-0.1,4.4-0.1,5.5-0.1
					c6.3,0,11,1.3,14.1,3.9c3.2,2.6,4.7,6,4.7,10.1c0,2.1-0.4,4.1-1.3,6.1c-0.9,2-2.3,3.8-4.3,5.5c-2,1.6-4.7,3-8,4v0.2
					c4.7,0.6,8.4,1.7,11.1,3.4c2.7,1.6,4.5,3.6,5.6,5.8c1.1,2.2,1.6,4.5,1.6,7c0,5.1-1.9,9.2-5.7,12.5c-3.8,3.3-9.1,4.9-15.8,4.9
					c-1.3,0-3.3,0-5.9-0.1c-2.6-0.1-5.8-0.1-9.5-0.1c-2.1,0-4.1,0-6.2,0c-2,0-3.7,0.1-4.9,0.2v-1.8c2-0.1,3.6-0.4,4.6-0.7
					c1-0.4,1.7-1.1,2.1-2.1c0.4-1.1,0.5-2.7,0.5-4.8V483c0-2.2-0.2-3.8-0.5-4.9c-0.4-1-1.1-1.8-2.1-2.1c-1-0.4-2.6-0.6-4.6-0.7
					V473.5z M685.6,475.3c-2.7,0-4.5,0.5-5.4,1.5c-0.8,1-1.3,3.1-1.3,6.2v44.4c0,3.1,0.4,5.1,1.3,6c0.9,0.9,2.7,1.4,5.4,1.4
					c5.8,0,10.1-1.4,12.8-4.1c2.7-2.7,4-6.6,4-11.6c0-4.6-1.2-8.1-3.7-10.6c-2.5-2.5-6.5-3.8-12.2-3.8h-9.2v-1.5h7.7
					c3.5,0,6.2-0.7,8.1-2c1.9-1.3,3.2-3.1,3.9-5.4c0.7-2.2,1.1-4.6,1.1-7.2c0-4.4-1-7.7-2.9-10C693.2,476.4,690,475.3,685.6,475.3z"
					/>
			</defs>
			<use xlink:href="#XMLID_141_"  style="overflow:visible;fill:#E3BD82;"/>
			<clipPath id="XMLID_226_">
				<use xlink:href="#XMLID_141_"  style="overflow:visible;"/>
			</clipPath>
		</g>
	</g>
</g>
</svg>
