<?xml version="1.0" encoding="utf-8"?>
<!-- Generator: Adobe Illustrator 19.0.0, SVG Export Plug-In . SVG Version: 6.00 Build 0)  -->
<svg version="1.1" id="Layer_1" xmlns="http://www.w3.org/2000/svg" xmlns:xlink="http://www.w3.org/1999/xlink" x="0px" y="0px"
	 viewBox="0 0 2000 2000" style="enable-background:new 0 0 2000 2000;" xml:space="preserve">
<style type="text/css">
	.st0{fill:#E3BD82;}
</style>
<g>
	<path class="st0" d="M427,559l450.4,392c0.1,0.1,0.1,0.1,0.2,0.2l123.9,107.9L1573.6,559H427z"/>
	<path class="st0" d="M959.6,1192.3l-123.5-107.5L427,1441h1146.6l-407.2-356l-122.7,107.2c-12.1,10.5-27.1,15.8-42.1,15.8
		C986.6,1208.1,971.6,1202.8,959.6,1192.3z"/>
	<polygon class="st0" points="1680,1364 1680,636 1263.6,1000 	"/>
	<polygon class="st0" points="320,1364.4 738.6,1000 320,635.6 	"/>
	<path d="M1808,494.2c0-0.6,0-1.2,0-1.9c0-0.5,0-0.9-0.1-1.4c0-0.6-0.1-1.2-0.1-1.8c0-0.5-0.1-1-0.1-1.4c-0.1-0.5-0.1-1.1-0.2-1.6
		c-0.1-0.5-0.1-1-0.2-1.5c-0.1-0.5-0.2-1-0.3-1.5c-0.1-0.5-0.2-1.1-0.3-1.6c-0.1-0.5-0.2-1-0.3-1.5c-0.1-0.5-0.3-1.1-0.4-1.6
		c-0.1-0.5-0.3-0.9-0.4-1.4c-0.2-0.5-0.3-1-0.5-1.6c-0.2-0.5-0.3-1-0.5-1.4c-0.2-0.5-0.3-1-0.5-1.5c-0.2-0.5-0.4-1-0.6-1.5
		c-0.2-0.5-0.4-1-0.6-1.4c-0.2-0.5-0.4-1-0.7-1.5c-0.2-0.5-0.4-0.9-0.6-1.4c-0.2-0.5-0.5-1-0.7-1.5c-0.2-0.4-0.5-0.9-0.7-1.3
		c-0.3-0.5-0.5-0.9-0.8-1.4c-0.3-0.5-0.5-0.9-0.8-1.3c-0.3-0.4-0.5-0.9-0.8-1.3c-0.3-0.5-0.6-0.9-0.9-1.4c-0.3-0.4-0.5-0.8-0.8-1.2
		c-0.4-0.5-0.7-1-1.1-1.4c-0.3-0.4-0.6-0.7-0.8-1.1c-0.4-0.5-0.8-1-1.2-1.4c-0.2-0.2-0.3-0.4-0.5-0.6c-0.1-0.1-0.3-0.3-0.4-0.4
		c-0.4-0.4-0.8-0.9-1.2-1.3c-0.3-0.4-0.7-0.7-1-1.1c-0.3-0.3-0.7-0.7-1-1c-0.4-0.4-0.9-0.8-1.3-1.2c-0.3-0.2-0.5-0.5-0.8-0.7
		c-0.5-0.5-1.1-1-1.6-1.4c-0.2-0.1-0.3-0.3-0.5-0.4c-0.7-0.5-1.3-1.1-2-1.6c-0.1,0-0.1-0.1-0.2-0.1c-2.4-1.8-5-3.4-7.6-4.9
		c-0.1-0.1-0.2-0.1-0.3-0.2c-0.8-0.4-1.6-0.8-2.4-1.2c-0.4-0.2-0.9-0.4-1.3-0.6c-0.5-0.2-1-0.5-1.5-0.7c-0.7-0.3-1.5-0.6-2.3-0.9
		c-0.2-0.1-0.4-0.2-0.6-0.2c-0.9-0.3-1.9-0.7-2.8-1c0,0,0,0-0.1,0c-1-0.3-1.9-0.6-2.9-0.8c0,0,0,0,0,0c-0.9-0.2-1.8-0.5-2.7-0.7
		c-0.1,0-0.2,0-0.3-0.1c-0.8-0.2-1.6-0.3-2.4-0.5c-0.2,0-0.5-0.1-0.7-0.1c-0.7-0.1-1.4-0.2-2.1-0.3c-0.4,0-0.7-0.1-1.1-0.1
		c-0.6-0.1-1.2-0.1-1.8-0.2c-0.5,0-1-0.1-1.5-0.1c-0.5,0-1,0-1.5-0.1c-0.6,0-1.2,0-1.8,0c-0.2,0-0.4,0-0.5,0H256c-0.2,0-0.4,0-0.6,0
		c-0.6,0-1.2,0-1.7,0c-0.5,0-1,0-1.5,0.1c-0.5,0-1,0.1-1.5,0.1c-0.6,0-1.2,0.1-1.8,0.2c-0.4,0-0.7,0.1-1.1,0.1
		c-0.7,0.1-1.4,0.2-2.1,0.3c-0.3,0-0.5,0.1-0.7,0.1c-0.8,0.1-1.6,0.3-2.4,0.5c-0.2,0-0.3,0.1-0.5,0.1c-0.9,0.2-1.7,0.4-2.6,0.6
		c-0.1,0-0.2,0.1-0.3,0.1c-0.9,0.2-1.8,0.5-2.6,0.8c-0.1,0-0.3,0.1-0.4,0.1c-0.8,0.3-1.7,0.6-2.5,0.9c-0.3,0.1-0.5,0.2-0.8,0.3
		c-0.7,0.3-1.3,0.5-2,0.8c-0.5,0.2-0.9,0.4-1.4,0.6c-0.4,0.2-0.9,0.4-1.3,0.6c-0.7,0.3-1.3,0.7-2,1c-0.2,0.1-0.5,0.2-0.7,0.4
		c-0.8,0.4-1.5,0.9-2.3,1.3c-0.1,0.1-0.2,0.1-0.3,0.2c-0.8,0.5-1.6,1-2.3,1.5c-0.1,0.1-0.2,0.1-0.2,0.2c-0.7,0.5-1.5,1-2.2,1.6
		c-0.1,0.1-0.2,0.2-0.4,0.3c-0.6,0.5-1.3,1-1.9,1.5c-0.2,0.2-0.4,0.3-0.6,0.5c-0.5,0.5-1.1,0.9-1.6,1.4c-0.3,0.2-0.5,0.5-0.8,0.7
		c-0.4,0.4-0.9,0.8-1.3,1.3c-0.3,0.3-0.7,0.7-1,1c-0.4,0.4-0.7,0.7-1.1,1.1c-0.4,0.4-0.8,0.8-1.2,1.3c-0.1,0.2-0.3,0.3-0.4,0.5
		c-0.2,0.2-0.3,0.4-0.5,0.6c-0.4,0.5-0.8,0.9-1.2,1.4c-0.3,0.4-0.6,0.7-0.8,1.1c-0.4,0.5-0.7,0.9-1.1,1.4c-0.3,0.4-0.6,0.8-0.8,1.2
		c-0.3,0.5-0.6,0.9-0.9,1.4c-0.3,0.4-0.6,0.9-0.8,1.3c-0.3,0.4-0.5,0.9-0.8,1.3c-0.3,0.5-0.5,0.9-0.8,1.4c-0.2,0.4-0.5,0.9-0.7,1.3
		c-0.3,0.5-0.5,1-0.8,1.5c-0.2,0.4-0.4,0.9-0.6,1.3c-0.2,0.5-0.5,1-0.7,1.5c-0.2,0.5-0.4,0.9-0.6,1.4c-0.2,0.5-0.4,1-0.6,1.5
		c-0.2,0.5-0.4,1-0.5,1.5c-0.2,0.5-0.3,1-0.5,1.5c-0.2,0.5-0.3,1-0.5,1.6c-0.1,0.5-0.3,1-0.4,1.4c-0.1,0.5-0.3,1.1-0.4,1.6
		c-0.1,0.5-0.2,1-0.3,1.5c-0.1,0.5-0.2,1-0.3,1.6c-0.1,0.5-0.2,1-0.3,1.5c-0.1,0.5-0.2,1-0.2,1.5c-0.1,0.6-0.1,1.1-0.2,1.7
		c-0.1,0.5-0.1,0.9-0.1,1.4c-0.1,0.6-0.1,1.2-0.1,1.8c0,0.4,0,0.9-0.1,1.4c0,0.6,0,1.2,0,1.9c0,0.3,0,0.5,0,0.7V1505
		c0,0.3,0,0.5,0,0.8c0,0.6,0,1.2,0,1.9c0,0.5,0,0.9,0.1,1.4c0,0.6,0.1,1.2,0.1,1.8c0,0.5,0.1,1,0.1,1.4c0.1,0.6,0.1,1.1,0.2,1.7
		c0.1,0.5,0.1,1,0.2,1.5c0.1,0.5,0.2,1,0.3,1.5c0.1,0.5,0.2,1.1,0.3,1.6c0.1,0.5,0.2,1,0.3,1.5c0.1,0.5,0.3,1.1,0.4,1.6
		c0.1,0.5,0.3,0.9,0.4,1.4c0.2,0.5,0.3,1.1,0.5,1.6c0.2,0.5,0.3,0.9,0.5,1.4c0.2,0.5,0.3,1,0.5,1.5c0.2,0.5,0.4,1,0.6,1.4
		c0.2,0.5,0.4,1,0.6,1.4c0.2,0.5,0.4,1,0.7,1.5c0.2,0.5,0.4,0.9,0.6,1.4c0.2,0.5,0.5,1,0.7,1.4c0.2,0.5,0.5,0.9,0.7,1.4
		c0.3,0.5,0.5,0.9,0.8,1.4c0.3,0.5,0.5,0.9,0.8,1.4c0.3,0.4,0.5,0.8,0.8,1.3c0.3,0.5,0.6,1,1,1.4c0.3,0.4,0.5,0.8,0.8,1.1
		c0.4,0.5,0.7,1,1.1,1.5c0.3,0.3,0.5,0.7,0.8,1c0.4,0.5,0.8,1,1.2,1.5c0.2,0.2,0.3,0.4,0.5,0.6c0.1,0.1,0.3,0.3,0.4,0.4
		c0.5,0.5,1,1.1,1.4,1.6c0.3,0.3,0.6,0.6,0.9,1c0.4,0.5,0.9,0.9,1.4,1.3c0.4,0.3,0.7,0.7,1.1,1c0.3,0.3,0.6,0.5,0.9,0.8
		c1.1,1,2.3,1.9,3.4,2.8c0.2,0.1,0.3,0.2,0.5,0.4c0.6,0.5,1.2,0.9,1.8,1.3c0.3,0.2,0.5,0.4,0.8,0.6c0.6,0.4,1.2,0.8,1.7,1.1
		c0.3,0.2,0.7,0.4,1,0.6c0.5,0.3,1.1,0.6,1.6,0.9c0.4,0.2,0.8,0.5,1.3,0.7c0.5,0.3,1,0.5,1.5,0.8c0.5,0.3,1,0.5,1.6,0.8
		c0.4,0.2,0.8,0.4,1.3,0.6c0.6,0.3,1.3,0.5,1.9,0.8c0.3,0.1,0.7,0.3,1,0.4c0.8,0.3,1.6,0.6,2.4,0.8c0.2,0.1,0.4,0.2,0.7,0.2
		c0.9,0.3,1.9,0.6,2.8,0.8c0.1,0,0.2,0.1,0.3,0.1c5.1,1.4,10.5,2.1,16,2.1c0.2,0,0.3,0,0.5,0c0,0,0,0,0,0h1487.9c0,0,0,0,0,0
		c0.2,0,0.4,0,0.5,0c5.5,0,10.9-0.8,15.9-2.1c0.1,0,0.1,0,0.2-0.1c1-0.3,2-0.5,2.9-0.9c0.2-0.1,0.4-0.1,0.6-0.2
		c0.8-0.3,1.6-0.5,2.4-0.8c0.3-0.1,0.6-0.3,1-0.4c0.7-0.3,1.3-0.5,2-0.8c0.4-0.2,0.8-0.4,1.3-0.6c0.5-0.2,1.1-0.5,1.6-0.8
		c0.5-0.2,1-0.5,1.5-0.8c0.4-0.2,0.9-0.5,1.3-0.7c0.5-0.3,1.1-0.6,1.6-0.9c0.4-0.2,0.7-0.4,1.1-0.7c0.6-0.4,1.2-0.7,1.7-1.1
		c0.3-0.2,0.6-0.4,0.9-0.6c0.6-0.4,1.2-0.8,1.8-1.3c0.2-0.2,0.4-0.3,0.7-0.5c1.3-1,2.5-2,3.8-3.1c0.1-0.1,0.3-0.2,0.4-0.4
		c0.4-0.3,0.7-0.7,1.1-1c0.5-0.4,0.9-0.9,1.4-1.3c0.3-0.3,0.6-0.6,0.9-1c0.5-0.5,1-1,1.4-1.5c0.1-0.1,0.2-0.3,0.4-0.4
		c0.2-0.2,0.3-0.4,0.5-0.6c0.4-0.5,0.8-0.9,1.2-1.4c0.3-0.4,0.6-0.7,0.9-1.1c0.4-0.5,0.7-0.9,1.1-1.4c0.3-0.4,0.6-0.8,0.8-1.2
		c0.3-0.5,0.6-0.9,0.9-1.4c0.3-0.4,0.6-0.9,0.8-1.3c0.3-0.4,0.5-0.9,0.8-1.3c0.3-0.5,0.5-0.9,0.8-1.4c0.2-0.4,0.5-0.9,0.7-1.3
		c0.3-0.5,0.5-1,0.7-1.5c0.2-0.4,0.4-0.9,0.6-1.3c0.2-0.5,0.5-1,0.7-1.5c0.2-0.5,0.4-0.9,0.6-1.4c0.2-0.5,0.4-1,0.6-1.5
		c0.2-0.5,0.4-1,0.5-1.5c0.2-0.5,0.3-1,0.5-1.4c0.2-0.5,0.3-1,0.5-1.6c0.1-0.5,0.3-0.9,0.4-1.4c0.1-0.5,0.3-1.1,0.4-1.6
		c0.1-0.5,0.2-1,0.3-1.4c0.1-0.5,0.2-1.1,0.3-1.6c0.1-0.5,0.2-1,0.3-1.5c0.1-0.5,0.2-1,0.2-1.5c0.1-0.5,0.1-1.1,0.2-1.6
		c0.1-0.5,0.1-1,0.1-1.4c0.1-0.6,0.1-1.2,0.1-1.8c0-0.5,0.1-0.9,0.1-1.4c0-0.6,0-1.2,0-1.8c0-0.3,0-0.5,0-0.8V495
		C1808,494.8,1808,494.5,1808,494.2z M1001.5,1059.1L877.6,951.3c-0.1-0.1-0.1-0.1-0.2-0.2L427,559h1146.6L1001.5,1059.1z
		 M1166.4,1085l407.2,356H427l409.1-356.1l123.5,107.5c12,10.5,27,15.7,42,15.7c15,0,30.1-5.3,42.1-15.8L1166.4,1085z M738.6,1000
		L320,1364.4V635.6L738.6,1000z M1680,1364l-416.4-364L1680,636V1364z"/>
</g>
</svg>
