<?xml version="1.0" encoding="utf-8"?>
<!-- Generator: Adobe Illustrator 19.0.0, SVG Export Plug-In . SVG Version: 6.00 Build 0)  -->
<svg version="1.1" id="Layer_1" xmlns="http://www.w3.org/2000/svg" xmlns:xlink="http://www.w3.org/1999/xlink" x="0px" y="0px"
	 viewBox="194 -104 1000 1000" style="enable-background:new 194 -104 1000 1000;" xml:space="preserve">
<style type="text/css">
	.st0{fill:#E3BD82;}
</style>
<g>
	<path class="st0" d="M833.8,46H554.2c-55.9,0-108.7,22-148.5,61.8S344,200.3,344,256.2v279.5c0,55.9,22,108.7,61.8,148.5
		C445.5,724,498.3,746,554.2,746h279.5c55.9,0,108.7-22,148.5-61.8c39.8-39.7,61.8-92.5,61.8-148.4V256.2
		c0-55.9-22-108.7-61.8-148.5C942.5,68,889.7,46,833.8,46z M984,536c0,82.8-67.2,150-150,150H554c-82.8,0-150-67.2-150-150V256
		c0-82.8,67.2-150,150-150h280c82.8,0,150,67.2,150,150V536z"/>
	<path class="st0" d="M694,206c-104.8,0-190,85.2-190,190s85.2,190,190,190s190-85.2,190-190S798.8,206,694,206z M694,506
		c-60.7,0-110-49.3-110-110s49.3-110,110-110s110,49.3,110,110S754.7,506,694,506z"/>
	<circle class="st0" cx="889" cy="208.6" r="40"/>
</g>
</svg>
