<?xml version="1.0" encoding="utf-8"?>
<!-- Generator: Adobe Illustrator 25.4.1, SVG Export Plug-In . SVG Version: 6.00 Build 0)  -->
<svg version="1.1" id="Layer_1" xmlns="http://www.w3.org/2000/svg" xmlns:xlink="http://www.w3.org/1999/xlink" x="0px" y="0px"
	 viewBox="0 0 1000 1000" style="enable-background:new 0 0 1000 1000;" xml:space="preserve">
<style type="text/css">
	.st0{fill:#E3BD82;}
</style>
<g>
	<path d="M500,390c-60.7,0-110,49.3-110,110s49.3,110,110,110s110-49.3,110-110S560.7,390,500,390z"/>
	<path d="M640,210H360c-82.8,0-150,67.2-150,150v280c0,82.8,67.2,150,150,150h280c82.8,0,150-67.2,150-150V360
		C790,277.2,722.8,210,640,210z M500,690c-104.8,0-190-85.2-190-190s85.2-190,190-190s190,85.2,190,190S604.8,690,500,690z
		 M695,352.6c-22.1,0-40-17.9-40-40s17.9-40,40-40s40,17.9,40,40S717.1,352.6,695,352.6z"/>
	<path class="st0" d="M639.8,150H360.2c-55.9,0-108.7,22-148.5,61.8S150,304.3,150,360.2v279.5c0,55.9,22,108.7,61.8,148.5
		C251.5,828,304.3,850,360.2,850h279.5c55.9,0,108.7-22,148.5-61.8C828,748.5,850,695.7,850,639.8V360.2c0-55.9-22-108.7-61.8-148.5
		C748.5,172,695.7,150,639.8,150z M790,640c0,82.8-67.2,150-150,150H360c-82.8,0-150-67.2-150-150V360c0-82.8,67.2-150,150-150h280
		c82.8,0,150,67.2,150,150V640z"/>
	<path class="st0" d="M500,310c-104.8,0-190,85.2-190,190s85.2,190,190,190s190-85.2,190-190S604.8,310,500,310z M500,610
		c-60.7,0-110-49.3-110-110s49.3-110,110-110s110,49.3,110,110S560.7,610,500,610z"/>
	<circle class="st0" cx="695" cy="312.6" r="40"/>
</g>
</svg>
